<svg width="366" height="76" viewBox="0 0 366 76" fill="none" xmlns="http://www.w3.org/2000/svg">
<path d="M1.85599 62L10.816 17.2H29.568C34.176 17.2 38.1227 17.968 41.408 19.504C44.736 20.9973 47.2747 23.152 49.024 25.968C50.7733 28.7413 51.648 32.048 51.648 35.888C51.648 39.856 50.9653 43.44 49.6 46.64C48.2773 49.84 46.3787 52.592 43.904 54.896C41.4293 57.1573 38.4853 58.9067 35.072 60.144C31.6587 61.3813 27.8827 62 23.744 62H1.85599ZM13.952 53.488H24.064C27.6907 53.488 30.7627 52.7413 33.28 51.248C35.84 49.7547 37.7813 47.728 39.104 45.168C40.4693 42.608 41.152 39.7067 41.152 36.464C41.152 34.2453 40.6827 32.3467 39.744 30.768C38.8053 29.1467 37.376 27.9093 35.456 27.056C33.5787 26.16 31.232 25.712 28.416 25.712H19.52L13.952 53.488ZM63.3935 62.768C59.9802 62.768 57.0362 62.192 54.5615 61.04C52.0868 59.888 50.1668 58.224 48.8015 56.048L55.6495 49.52C56.5455 51.0133 57.6548 52.1867 58.9775 53.04C60.3002 53.8507 61.8148 54.256 63.5215 54.256C65.4842 54.256 67.0842 53.7013 68.3215 52.592C69.6015 51.4827 70.4762 49.712 70.9455 47.28L75.2335 25.52H59.4895L61.2175 17.2H87.2015L81.2495 46.768C80.4815 50.6933 79.3082 53.8293 77.7295 56.176C76.1935 58.48 74.2308 60.1653 71.8415 61.232C69.4522 62.256 66.6362 62.768 63.3935 62.768ZM89.2505 47.984L90.8505 39.984H108.963L107.363 47.984H89.2505ZM113.106 62L122.066 17.2H140.178C145.767 17.2 150.077 18.4373 153.106 20.912C156.178 23.344 157.714 26.7573 157.714 31.152C157.714 34.9067 156.839 38.192 155.09 41.008C153.341 43.7813 150.823 45.9147 147.538 47.408C144.295 48.9013 140.434 49.648 135.954 49.648H121.426L126.93 44.912L123.538 62H113.106ZM126.674 46.128L123.026 41.2H136.402C139.815 41.2 142.461 40.432 144.338 38.896C146.258 37.3173 147.218 35.0347 147.218 32.048C147.218 29.872 146.493 28.272 145.042 27.248C143.591 26.1813 141.543 25.648 138.898 25.648H126.29L131.794 20.592L126.674 46.128ZM214.356 62L223.316 17.2H231.892L251.156 49.648L247.764 49.456L254.164 17.2H264.404L255.444 62H246.932L227.604 29.552L231.06 29.744L224.596 62H214.356ZM275.324 62L282.556 25.648H268.22L269.948 17.2H308.988L307.26 25.648H292.988L285.692 62H275.324ZM320.518 35.248H342.086L340.486 43.312H318.918L320.518 35.248ZM317.574 53.68H342.022L340.294 62H305.606L314.566 17.2H348.422L346.694 25.52H323.206L317.574 53.68Z" fill="#DB5192"/>
<mask id="mask0_60_545" style="mask-type:luminance" maskUnits="userSpaceOnUse" x="0" y="16" width="350" height="48">
<path d="M350 16H0V64H350V16Z" fill="white"/>
<path d="M1.85599 62L10.816 17.2H29.568C34.176 17.2 38.1227 17.968 41.408 19.504C44.736 20.9973 47.2747 23.152 49.024 25.968C50.7733 28.7413 51.648 32.048 51.648 35.888C51.648 39.856 50.9653 43.44 49.6 46.64C48.2773 49.84 46.3787 52.592 43.904 54.896C41.4293 57.1573 38.4853 58.9067 35.072 60.144C31.6587 61.3813 27.8827 62 23.744 62H1.85599ZM13.952 53.488H24.064C27.6907 53.488 30.7627 52.7413 33.28 51.248C35.84 49.7547 37.7813 47.728 39.104 45.168C40.4693 42.608 41.152 39.7067 41.152 36.464C41.152 34.2453 40.6827 32.3467 39.744 30.768C38.8053 29.1467 37.376 27.9093 35.456 27.056C33.5787 26.16 31.232 25.712 28.416 25.712H19.52L13.952 53.488ZM63.3935 62.768C59.9802 62.768 57.0362 62.192 54.5615 61.04C52.0868 59.888 50.1668 58.224 48.8015 56.048L55.6495 49.52C56.5455 51.0133 57.6548 52.1867 58.9775 53.04C60.3002 53.8507 61.8148 54.256 63.5215 54.256C65.4842 54.256 67.0842 53.7013 68.3215 52.592C69.6015 51.4827 70.4762 49.712 70.9455 47.28L75.2335 25.52H59.4895L61.2175 17.2H87.2015L81.2495 46.768C80.4815 50.6933 79.3082 53.8293 77.7295 56.176C76.1935 58.48 74.2308 60.1653 71.8415 61.232C69.4522 62.256 66.6362 62.768 63.3935 62.768ZM89.2505 47.984L90.8505 39.984H108.963L107.363 47.984H89.2505ZM113.106 62L122.066 17.2H140.178C145.767 17.2 150.077 18.4373 153.106 20.912C156.178 23.344 157.714 26.7573 157.714 31.152C157.714 34.9067 156.839 38.192 155.09 41.008C153.341 43.7813 150.823 45.9147 147.538 47.408C144.295 48.9013 140.434 49.648 135.954 49.648H121.426L126.93 44.912L123.538 62H113.106ZM126.674 46.128L123.026 41.2H136.402C139.815 41.2 142.461 40.432 144.338 38.896C146.258 37.3173 147.218 35.0347 147.218 32.048C147.218 29.872 146.493 28.272 145.042 27.248C143.591 26.1813 141.543 25.648 138.898 25.648H126.29L131.794 20.592L126.674 46.128ZM214.356 62L223.316 17.2H231.892L251.156 49.648L247.764 49.456L254.164 17.2H264.404L255.444 62H246.932L227.604 29.552L231.06 29.744L224.596 62H214.356ZM275.324 62L282.556 25.648H268.22L269.948 17.2H308.988L307.26 25.648H292.988L285.692 62H275.324ZM320.518 35.248H342.086L340.486 43.312H318.918L320.518 35.248ZM317.574 53.68H342.022L340.294 62H305.606L314.566 17.2H348.422L346.694 25.52H323.206L317.574 53.68Z" fill="black"/>
</mask>
<g mask="url(#mask0_60_545)">
<path d="M1.856 62L0.875423 61.8039L0.6362 63H1.856V62ZM10.816 17.2V16.2H9.9962L9.83542 17.0039L10.816 17.2ZM41.408 19.504L40.9845 20.4099L40.9915 20.4132L40.9986 20.4164L41.408 19.504ZM49.024 25.968L48.1745 26.4957L48.1782 26.5015L49.024 25.968ZM49.6 46.64L48.6802 46.2475L48.6758 46.258L49.6 46.64ZM43.904 54.896L44.5786 55.6342L44.5854 55.6279L43.904 54.896ZM13.952 53.488L12.9715 53.2914L12.7316 54.488H13.952V53.488ZM33.28 51.248L32.7761 50.3842L32.7698 50.3879L33.28 51.248ZM39.104 45.168L38.2216 44.6974L38.2156 44.709L39.104 45.168ZM39.744 30.768L38.8785 31.2691L38.8845 31.2791L39.744 30.768ZM35.456 27.056L35.0253 27.9585L35.0375 27.9643L35.0499 27.9698L35.456 27.056ZM19.52 25.712V24.712H18.7006L18.5395 25.5154L19.52 25.712ZM2.83658 62.1961L11.7966 17.3961L9.83542 17.0039L0.875423 61.8039L2.83658 62.1961ZM10.816 18.2H29.568V16.2H10.816V18.2ZM29.568 18.2C34.068 18.2 37.8625 18.9503 40.9845 20.4099L41.8315 18.5981C38.3828 16.9857 34.2841 16.2 29.568 16.2V18.2ZM40.9986 20.4164C44.1639 21.8367 46.5407 23.8657 48.1745 26.4957L49.8734 25.4403C48.0085 22.4383 45.3081 20.158 41.8174 18.5916L40.9986 20.4164ZM48.1782 26.5015C49.8106 29.0894 50.648 32.204 50.648 35.888H52.648C52.648 31.892 51.7361 28.3932 49.8698 25.4345L48.1782 26.5015ZM50.648 35.888C50.648 39.74 49.9857 43.1878 48.6802 46.2475L50.5198 47.0324C51.945 43.6921 52.648 39.972 52.648 35.888H50.648ZM48.6758 46.258C47.4067 49.3286 45.5896 51.9604 43.2226 54.1641L44.5854 55.6279C47.1678 53.2236 49.148 50.3514 50.5242 47.022L48.6758 46.258ZM43.2294 54.1578C40.8595 56.3234 38.0314 58.0075 34.7312 59.2039L35.4128 61.0841C38.9392 59.8058 41.9992 57.9912 44.5786 55.6342L43.2294 54.1578ZM34.7312 59.2039C31.4413 60.3965 27.7825 61 23.744 61V63C27.9828 63 31.8761 62.3662 35.4128 61.0841L34.7312 59.2039ZM23.744 61H1.856V63H23.744V61ZM13.952 54.488H24.064V52.488H13.952V54.488ZM24.064 54.488C27.8276 54.488 31.0855 53.7125 33.7902 52.1081L32.7698 50.3879C30.4398 51.7701 27.5538 52.488 24.064 52.488V54.488ZM33.7839 52.1118C36.5029 50.5257 38.58 48.3607 39.9924 45.627L38.2156 44.709C36.9827 47.0953 35.1771 48.9837 32.7761 50.3842L33.7839 52.1118ZM39.9864 45.6386C41.4377 42.9174 42.152 39.8512 42.152 36.464H40.152C40.152 39.5621 39.501 42.2986 38.2216 44.6974L39.9864 45.6386ZM42.152 36.464C42.152 34.1029 41.6516 32.0195 40.6035 30.2569L38.8845 31.2791C39.7138 32.6738 40.152 34.3877 40.152 36.464H42.152ZM40.6094 30.267C39.5524 28.4411 37.9505 27.0703 35.8621 26.1422L35.0499 27.9698C36.8015 28.7483 38.0582 29.8523 38.8785 31.2691L40.6094 30.267ZM35.8867 26.1535C33.8361 25.1748 31.3311 24.712 28.416 24.712V26.712C31.1329 26.712 33.3213 27.1452 35.0253 27.9585L35.8867 26.1535ZM28.416 24.712H19.52V26.712H28.416V24.712ZM18.5395 25.5154L12.9715 53.2914L14.9325 53.6846L20.5005 25.9085L18.5395 25.5154ZM48.8015 56.048L48.1115 55.3242L47.5204 55.8877L47.9544 56.5795L48.8015 56.048ZM55.6495 49.52L56.507 49.0055L55.864 47.9339L54.9595 48.7962L55.6495 49.52ZM58.9775 53.04L58.4354 53.8803L58.4451 53.8866L58.4549 53.8926L58.9775 53.04ZM68.3215 52.592L67.6666 51.8363L67.6602 51.8418L67.654 51.8474L68.3215 52.592ZM70.9455 47.28L69.9644 47.0867L69.9636 47.0905L70.9455 47.28ZM75.2335 25.52L76.2146 25.7133L76.4498 24.52H75.2335V25.52ZM59.4895 25.52L58.5104 25.3166L58.2605 26.52H59.4895V25.52ZM61.2175 17.2V16.2H60.4039L60.2384 16.9966L61.2175 17.2ZM87.2015 17.2L88.1818 17.3973L88.4229 16.2H87.2015V17.2ZM81.2495 46.768L80.2692 46.5707L80.2681 46.576L81.2495 46.768ZM77.7295 56.176L76.8998 55.6178L76.8975 55.6213L77.7295 56.176ZM71.8415 61.232L72.2354 62.1511L72.2423 62.1482L72.2492 62.1451L71.8415 61.232ZM63.3935 61.768C60.0905 61.768 57.2972 61.2105 54.9835 60.1334L54.1395 61.9466C56.7751 63.1735 59.8699 63.768 63.3935 63.768V61.768ZM54.9835 60.1334C52.6723 59.0575 50.9048 57.5187 49.6486 55.5165L47.9544 56.5795C49.4288 58.9293 51.5014 60.7185 54.1395 61.9466L54.9835 60.1334ZM49.4915 56.7718L56.3395 50.2438L54.9595 48.7962L48.1115 55.3242L49.4915 56.7718ZM54.792 50.0345C55.7583 51.645 56.9708 52.9354 58.4354 53.8803L59.5196 52.1997C58.3388 51.4379 57.3327 50.3817 56.507 49.0055L54.792 50.0345ZM58.4549 53.8926C59.9504 54.8092 61.6495 55.256 63.5215 55.256V53.256C61.9802 53.256 60.65 52.8922 59.5001 52.1874L58.4549 53.8926ZM63.5215 55.256C65.6834 55.256 67.5359 54.6394 68.989 53.3366L67.654 51.8474C66.6324 52.7633 65.285 53.256 63.5215 53.256V55.256ZM68.9764 53.3477C70.4884 52.0373 71.4345 50.0233 71.9274 47.4695L69.9636 47.0905C69.5178 49.4007 68.7146 50.928 67.6666 51.8363L68.9764 53.3477ZM71.9266 47.4733L76.2146 25.7133L74.2524 25.3267L69.9644 47.0867L71.9266 47.4733ZM75.2335 24.52H59.4895V26.52H75.2335V24.52ZM60.4686 25.7233L62.1966 17.4033L60.2384 16.9966L58.5104 25.3166L60.4686 25.7233ZM61.2175 18.2H87.2015V16.2H61.2175V18.2ZM86.2212 17.0027L80.2692 46.5707L82.2298 46.9653L88.1818 17.3973L86.2212 17.0027ZM80.2681 46.576C79.5159 50.4206 78.3799 53.4176 76.8998 55.6178L78.5592 56.7342C80.2364 54.241 81.4471 50.966 82.2309 46.96L80.2681 46.576ZM76.8975 55.6213C75.4598 57.7777 73.6405 59.3338 71.4339 60.3189L72.2492 62.1451C74.8212 60.9969 76.9272 59.1823 78.5616 56.7307L76.8975 55.6213ZM71.4476 60.3129C69.2094 61.2721 66.5332 61.768 63.3935 61.768V63.768C66.7392 63.768 69.6949 63.2399 72.2354 62.1511L71.4476 60.3129ZM89.2505 47.984L88.2699 47.7879L88.0307 48.984H89.2505V47.984ZM90.8505 39.984V38.984H90.0307L89.8699 39.7879L90.8505 39.984ZM108.963 39.984L109.943 40.1801L110.182 38.984H108.963V39.984ZM107.363 47.984V48.984H108.182L108.343 48.1801L107.363 47.984ZM90.2311 48.1801L91.8311 40.1801L89.8699 39.7879L88.2699 47.7879L90.2311 48.1801ZM90.8505 40.984H108.963V38.984H90.8505V40.984ZM107.982 39.7879L106.382 47.7879L108.343 48.1801L109.943 40.1801L107.982 39.7879ZM107.363 46.984H89.2505V48.984H107.363V46.984ZM113.106 62L112.125 61.8039L111.886 63H113.106V62ZM122.066 17.2V16.2H121.246L121.085 17.0039L122.066 17.2ZM153.106 20.912L152.473 21.6864L152.479 21.6913L152.485 21.696L153.106 20.912ZM155.09 41.008L155.936 41.5415L155.939 41.5357L155.09 41.008ZM147.538 47.408L147.124 46.4976L147.12 46.4997L147.538 47.408ZM121.426 49.648L120.774 48.89L118.731 50.648H121.426V49.648ZM126.93 44.912L127.911 45.1067L128.475 42.2631L126.278 44.154L126.93 44.912ZM123.538 62V63H124.359L124.519 62.1947L123.538 62ZM126.674 46.128L125.87 46.723L127.211 48.5346L127.654 46.3246L126.674 46.128ZM123.026 41.2V40.2H121.042L122.222 41.795L123.026 41.2ZM144.338 38.896L144.971 39.67L144.973 39.6684L144.338 38.896ZM145.042 27.248L144.45 28.0536L144.457 28.0594L144.465 28.065L145.042 27.248ZM126.29 25.648L125.614 24.9116L123.723 26.648H126.29V25.648ZM131.794 20.592L132.774 20.7886L133.378 17.7792L131.118 19.8556L131.794 20.592ZM114.087 62.1961L123.047 17.3961L121.085 17.0039L112.125 61.8039L114.087 62.1961ZM122.066 18.2H140.178V16.2H122.066V18.2ZM140.178 18.2C145.634 18.2 149.685 19.409 152.473 21.6864L153.739 20.1376C150.468 17.4657 145.901 16.2 140.178 16.2V18.2ZM152.485 21.696C155.286 23.9136 156.714 27.0207 156.714 31.152H158.714C158.714 26.494 157.07 22.7744 153.727 20.128L152.485 21.696ZM156.714 31.152C156.714 34.7455 155.879 37.843 154.241 40.4803L155.939 41.5357C157.8 38.541 158.714 35.0678 158.714 31.152H156.714ZM154.244 40.4745C152.609 43.0663 150.25 45.0766 147.124 46.4976L147.952 48.3184C151.396 46.7527 154.072 44.4964 155.936 41.5415L154.244 40.4745ZM147.12 46.4997C144.037 47.9193 140.325 48.648 135.954 48.648V50.648C140.543 50.648 144.553 49.8834 147.956 48.3163L147.12 46.4997ZM135.954 48.648H121.426V50.648H135.954V48.648ZM122.078 50.406L127.582 45.67L126.278 44.154L120.774 48.89L122.078 50.406ZM125.949 44.7173L122.557 61.8053L124.519 62.1947L127.911 45.1067L125.949 44.7173ZM123.538 61H113.106V63H123.538V61ZM127.478 45.533L123.83 40.605L122.222 41.795L125.87 46.723L127.478 45.533ZM123.026 42.2H136.402V40.2H123.026V42.2ZM136.402 42.2C139.954 42.2 142.855 41.4016 144.971 39.67L143.705 38.122C142.067 39.4624 139.677 40.2 136.402 40.2V42.2ZM144.973 39.6684C147.171 37.8612 148.218 35.2671 148.218 32.048H146.218C146.218 34.8022 145.345 36.7735 143.703 38.1236L144.973 39.6684ZM148.218 32.048C148.218 29.6298 147.396 27.6855 145.619 26.431L144.465 28.065C145.589 28.8585 146.218 30.1142 146.218 32.048H148.218ZM145.634 26.4423C143.948 25.2026 141.661 24.648 138.898 24.648V26.648C141.426 26.648 143.234 27.16 144.45 28.0536L145.634 26.4423ZM138.898 24.648H126.29V26.648H138.898V24.648ZM126.967 26.3844L132.471 21.3284L131.118 19.8556L125.614 24.9116L126.967 26.3844ZM130.814 20.3954L125.694 45.9314L127.654 46.3246L132.774 20.7886L130.814 20.3954ZM214.356 62L213.375 61.8039L213.136 63H214.356V62ZM223.316 17.2V16.2H222.496L222.335 17.0039L223.316 17.2ZM231.892 17.2L232.752 16.6895L232.461 16.2H231.892V17.2ZM251.156 49.648L251.099 50.6464L252.975 50.7525L252.016 49.1375L251.156 49.648ZM247.764 49.456L246.783 49.2614L246.559 50.3894L247.707 50.4544L247.764 49.456ZM254.164 17.2V16.2H253.343L253.183 17.0054L254.164 17.2ZM264.404 17.2L265.385 17.3961L265.624 16.2H264.404V17.2ZM255.444 62V63H256.264L256.425 62.1961L255.444 62ZM246.932 62L246.073 62.5118L246.364 63H246.932V62ZM227.604 29.552L227.659 28.5535L225.783 28.4493L226.745 30.0638L227.604 29.552ZM231.06 29.744L232.041 29.9405L232.267 28.8095L231.115 28.7455L231.06 29.744ZM224.596 62V63H225.415L225.577 62.1965L224.596 62ZM215.337 62.1961L224.297 17.3961L222.335 17.0039L213.375 61.8039L215.337 62.1961ZM223.316 18.2H231.892V16.2H223.316V18.2ZM231.032 17.7105L250.296 50.1585L252.016 49.1375L232.752 16.6895L231.032 17.7105ZM251.213 48.6496L247.821 48.4576L247.707 50.4544L251.099 50.6464L251.213 48.6496ZM248.745 49.6506L255.145 17.3946L253.183 17.0054L246.783 49.2614L248.745 49.6506ZM254.164 18.2H264.404V16.2H254.164V18.2ZM263.423 17.0039L254.463 61.8039L256.425 62.1961L265.385 17.3961L263.423 17.0039ZM255.444 61H246.932V63H255.444V61ZM247.791 61.4882L228.463 29.0402L226.745 30.0638L246.073 62.5118L247.791 61.4882ZM227.549 30.5505L231.005 30.7425L231.115 28.7455L227.659 28.5535L227.549 30.5505ZM230.079 29.5475L223.615 61.8035L225.577 62.1965L232.041 29.9405L230.079 29.5475ZM224.596 61H214.356V63H224.596V61ZM275.324 62L274.343 61.8049L274.105 63H275.324V62ZM282.556 25.648L283.536 25.8431L283.774 24.648H282.556V25.648ZM268.22 25.648L267.24 25.4476L266.994 26.648H268.22V25.648ZM269.948 17.2V16.2H269.131L268.968 16.9996L269.948 17.2ZM308.988 17.2L309.967 17.4004L310.213 16.2H308.988V17.2ZM307.26 25.648V26.648H308.076L308.239 25.8484L307.26 25.648ZM292.988 25.648V24.648H292.168L292.007 25.4512L292.988 25.648ZM285.692 62V63H286.511L286.672 62.1968L285.692 62ZM276.304 62.1951L283.536 25.8431L281.575 25.4529L274.343 61.8049L276.304 62.1951ZM282.556 24.648H268.22V26.648H282.556V24.648ZM269.199 25.8484L270.927 17.4004L268.968 16.9996L267.24 25.4476L269.199 25.8484ZM269.948 18.2H308.988V16.2H269.948V18.2ZM308.008 16.9996L306.28 25.4476L308.239 25.8484L309.967 17.4004L308.008 16.9996ZM307.26 24.648H292.988V26.648H307.26V24.648ZM292.007 25.4512L284.711 61.8032L286.672 62.1968L293.968 25.8448L292.007 25.4512ZM285.692 61H275.324V63H285.692V61ZM320.518 35.248V34.248H319.697L319.537 35.0534L320.518 35.248ZM342.086 35.248L343.067 35.4426L343.304 34.248H342.086V35.248ZM340.486 43.312V44.312H341.307L341.467 43.5066L340.486 43.312ZM318.918 43.312L317.937 43.1174L317.7 44.312H318.918V43.312ZM317.574 53.68L316.593 53.4839L316.354 54.68H317.574V53.68ZM342.022 53.68L343.001 53.8834L343.251 52.68H342.022V53.68ZM340.294 62V63H341.108L341.273 62.2034L340.294 62ZM305.606 62L304.625 61.8039L304.386 63H305.606V62ZM314.566 17.2V16.2H313.746L313.585 17.0039L314.566 17.2ZM348.422 17.2L349.401 17.4033L349.651 16.2H348.422V17.2ZM346.694 25.52V26.52H347.508L347.673 25.7233L346.694 25.52ZM323.206 25.52V24.52H322.386L322.225 25.3239L323.206 25.52ZM320.518 36.248H342.086V34.248H320.518V36.248ZM341.105 35.0534L339.505 43.1174L341.467 43.5066L343.067 35.4426L341.105 35.0534ZM340.486 42.312H318.918V44.312H340.486V42.312ZM319.899 43.5066L321.499 35.4426L319.537 35.0534L317.937 43.1174L319.899 43.5066ZM317.574 54.68H342.022V52.68H317.574V54.68ZM341.043 53.4766L339.315 61.7966L341.273 62.2034L343.001 53.8834L341.043 53.4766ZM340.294 61H305.606V63H340.294V61ZM306.587 62.1961L315.547 17.3961L313.585 17.0039L304.625 61.8039L306.587 62.1961ZM314.566 18.2H348.422V16.2H314.566V18.2ZM347.443 16.9966L345.715 25.3166L347.673 25.7233L349.401 17.4033L347.443 16.9966ZM346.694 24.52H323.206V26.52H346.694V24.52ZM322.225 25.3239L316.593 53.4839L318.555 53.8761L324.187 25.7161L322.225 25.3239Z" fill="black"/>
</g>
<g filter="url(#filter0_d_60_545)">
<path d="M5.31201 62V17.2H25.664C30.528 17.2 34.816 18.1387 38.528 20.016C42.24 21.8507 45.1413 24.432 47.232 27.76C49.3227 31.088 50.368 35.0347 50.368 39.6C50.368 44.1227 49.3227 48.0693 47.232 51.44C45.1413 54.768 42.24 57.3707 38.528 59.248C34.816 61.0827 30.528 62 25.664 62H5.31201ZM15.68 53.488H25.152C28.1387 53.488 30.72 52.9333 32.896 51.824C35.1147 50.672 36.8213 49.0507 38.016 46.96C39.2533 44.8693 39.872 42.416 39.872 39.6C39.872 36.7413 39.2533 34.288 38.016 32.24C36.8213 30.1493 35.1147 28.5493 32.896 27.44C30.72 26.288 28.1387 25.712 25.152 25.712H15.68V53.488ZM65.5055 62.768C62.4762 62.768 59.6815 62.2133 57.1215 61.104C54.6042 59.952 52.5348 58.3307 50.9135 56.24L56.6735 49.328C57.9108 50.9493 59.2122 52.1867 60.5775 53.04C61.9428 53.8507 63.4148 54.256 64.9935 54.256C69.2175 54.256 71.3295 51.7813 71.3295 46.832V25.52H55.5855V17.2H81.6335V46.256C81.6335 51.8027 80.2682 55.9413 77.5375 58.672C74.8068 61.4027 70.7962 62.768 65.5055 62.768ZM89.8905 47.984V39.984H108.003V47.984H89.8905ZM116.562 62V17.2H135.954C139.965 17.2 143.421 17.8613 146.322 19.184C149.223 20.464 151.463 22.32 153.042 24.752C154.621 27.184 155.41 30.0853 155.41 33.456C155.41 36.784 154.621 39.664 153.042 42.096C151.463 44.528 149.223 46.4053 146.322 47.728C143.421 49.008 139.965 49.648 135.954 49.648H122.322L126.93 44.976V62H116.562ZM126.93 46.128L122.322 41.2H135.378C138.578 41.2 140.967 40.5173 142.546 39.152C144.125 37.7867 144.914 35.888 144.914 33.456C144.914 30.9813 144.125 29.0613 142.546 27.696C140.967 26.3307 138.578 25.648 135.378 25.648H122.322L126.93 20.72V46.128ZM217.812 62V17.2H226.388L252.82 49.456H248.66V17.2H258.9V62H250.388L223.892 29.744H228.052V62H217.812ZM278.78 62V25.648H264.444V17.2H303.484V25.648H289.148V62H278.78ZM318.598 35.248H340.166V43.312H318.598V35.248ZM319.366 53.68H343.75V62H309.062V17.2H342.918V25.52H319.366V53.68Z" fill="white"/>
<mask id="mask1_60_545" style="mask-type:luminance" maskUnits="userSpaceOnUse" x="4" y="16" width="341" height="48">
<path d="M345 16H4V64H345V16Z" fill="white"/>
<path d="M5.31201 62V17.2H25.664C30.528 17.2 34.816 18.1387 38.528 20.016C42.24 21.8507 45.1413 24.432 47.232 27.76C49.3227 31.088 50.368 35.0347 50.368 39.6C50.368 44.1227 49.3227 48.0693 47.232 51.44C45.1413 54.768 42.24 57.3707 38.528 59.248C34.816 61.0827 30.528 62 25.664 62H5.31201ZM15.68 53.488H25.152C28.1387 53.488 30.72 52.9333 32.896 51.824C35.1147 50.672 36.8213 49.0507 38.016 46.96C39.2533 44.8693 39.872 42.416 39.872 39.6C39.872 36.7413 39.2533 34.288 38.016 32.24C36.8213 30.1493 35.1147 28.5493 32.896 27.44C30.72 26.288 28.1387 25.712 25.152 25.712H15.68V53.488ZM65.5055 62.768C62.4762 62.768 59.6815 62.2133 57.1215 61.104C54.6042 59.952 52.5348 58.3307 50.9135 56.24L56.6735 49.328C57.9108 50.9493 59.2122 52.1867 60.5775 53.04C61.9428 53.8507 63.4148 54.256 64.9935 54.256C69.2175 54.256 71.3295 51.7813 71.3295 46.832V25.52H55.5855V17.2H81.6335V46.256C81.6335 51.8027 80.2682 55.9413 77.5375 58.672C74.8068 61.4027 70.7962 62.768 65.5055 62.768ZM89.8905 47.984V39.984H108.003V47.984H89.8905ZM116.562 62V17.2H135.954C139.965 17.2 143.421 17.8613 146.322 19.184C149.223 20.464 151.463 22.32 153.042 24.752C154.621 27.184 155.41 30.0853 155.41 33.456C155.41 36.784 154.621 39.664 153.042 42.096C151.463 44.528 149.223 46.4053 146.322 47.728C143.421 49.008 139.965 49.648 135.954 49.648H122.322L126.93 44.976V62H116.562ZM126.93 46.128L122.322 41.2H135.378C138.578 41.2 140.967 40.5173 142.546 39.152C144.125 37.7867 144.914 35.888 144.914 33.456C144.914 30.9813 144.125 29.0613 142.546 27.696C140.967 26.3307 138.578 25.648 135.378 25.648H122.322L126.93 20.72V46.128ZM217.812 62V17.2H226.388L252.82 49.456H248.66V17.2H258.9V62H250.388L223.892 29.744H228.052V62H217.812ZM278.78 62V25.648H264.444V17.2H303.484V25.648H289.148V62H278.78ZM318.598 35.248H340.166V43.312H318.598V35.248ZM319.366 53.68H343.75V62H309.062V17.2H342.918V25.52H319.366V53.68Z" fill="black"/>
</mask>
<g mask="url(#mask1_60_545)">
<path d="M5.31201 62H4.31201V63H5.31201V62ZM5.31201 17.2V16.2H4.31201V17.2H5.31201ZM38.528 20.016L38.0767 20.9084L38.0849 20.9125L38.528 20.016ZM47.232 51.44L48.0788 51.972L48.0818 51.9671L47.232 51.44ZM38.528 59.248L38.9711 60.1445L38.9793 60.1404L38.528 59.248ZM15.68 53.488H14.68V54.488H15.68V53.488ZM32.896 51.824L33.3502 52.7149L33.3568 52.7115L32.896 51.824ZM38.016 46.96L37.1554 46.4507L37.1515 46.4572L37.1478 46.4639L38.016 46.96ZM38.016 32.24L37.1478 32.7361L37.1538 32.7467L37.1601 32.7571L38.016 32.24ZM32.896 27.44L32.4281 28.3238L32.4384 28.3292L32.4488 28.3344L32.896 27.44ZM15.68 25.712V24.712H14.68V25.712H15.68ZM6.31201 62V17.2H4.31201V62H6.31201ZM5.31201 18.2H25.664V16.2H5.31201V18.2ZM25.664 18.2C30.3977 18.2 34.5265 19.1129 38.0767 20.9084L38.9793 19.1236C35.1055 17.1645 30.6583 16.2 25.664 16.2V18.2ZM38.0849 20.9125C41.6405 22.6698 44.3982 25.129 46.3852 28.2919L48.0788 27.228C45.8845 23.735 42.8395 21.0315 38.9711 19.1195L38.0849 20.9125ZM46.3852 28.2919C48.3605 31.4362 49.368 35.1919 49.368 39.6H51.368C51.368 34.8775 50.2849 30.7398 48.0788 27.228L46.3852 28.2919ZM49.368 39.6C49.368 43.9631 48.3615 47.7218 46.3822 50.9129L48.0818 51.9671C50.2838 48.4169 51.368 44.2822 51.368 39.6H49.368ZM46.3852 50.9081C44.3969 54.0731 41.6364 56.5553 38.0767 58.3556L38.9793 60.1404C42.8436 58.186 45.8858 55.463 48.0788 51.972L46.3852 50.9081ZM38.0849 58.3515C34.5328 60.1072 30.401 61 25.664 61V63C30.655 63 35.0992 62.0582 38.9711 60.1445L38.0849 58.3515ZM25.664 61H5.31201V63H25.664V61ZM15.68 54.488H25.152V52.488H15.68V54.488ZM25.152 54.488C28.2619 54.488 31.0056 53.9102 33.3502 52.7149L32.4418 50.9331C30.4344 51.9565 28.0154 52.488 25.152 52.488V54.488ZM33.3568 52.7115C35.7392 51.4745 37.5904 49.7203 38.8842 47.4561L37.1478 46.4639C36.0522 48.381 34.4901 49.8695 32.4352 50.9365L33.3568 52.7115ZM38.8766 47.4693C40.2189 45.2013 40.872 42.5663 40.872 39.6H38.872C38.872 42.2657 38.2878 44.5373 37.1554 46.4507L38.8766 47.4693ZM40.872 39.6C40.872 36.5948 40.2204 33.9549 38.8719 31.7229L37.1601 32.7571C38.2863 34.6211 38.872 36.8879 38.872 39.6H40.872ZM38.8842 31.7439C37.5885 29.4764 35.7328 27.7404 33.3432 26.5456L32.4488 28.3344C34.4965 29.3583 36.0541 30.8223 37.1478 32.7361L38.8842 31.7439ZM33.3639 26.5562C31.0161 25.3133 28.2674 24.712 25.152 24.712V26.712C28.01 26.712 30.4239 27.2627 32.4281 28.3238L33.3639 26.5562ZM25.152 24.712H15.68V26.712H25.152V24.712ZM14.68 25.712V53.488H16.68V25.712H14.68ZM57.1215 61.104L56.7054 62.0133L56.7146 62.0175L56.7239 62.0216L57.1215 61.104ZM50.9135 56.24L50.1453 55.5998L49.6306 56.2175L50.1233 56.8528L50.9135 56.24ZM56.6735 49.328L57.4685 48.7213L56.7079 47.7247L55.9053 48.6878L56.6735 49.328ZM60.5775 53.04L60.0475 53.888L60.0572 53.894L60.067 53.8999L60.5775 53.04ZM71.3295 25.52H72.3295V24.52H71.3295V25.52ZM55.5855 25.52H54.5855V26.52H55.5855V25.52ZM55.5855 17.2V16.2H54.5855V17.2H55.5855ZM81.6335 17.2H82.6335V16.2H81.6335V17.2ZM65.5055 61.768C62.6011 61.768 59.9432 61.2369 57.5191 60.1864L56.7239 62.0216C59.4198 63.1898 62.3512 63.768 65.5055 63.768V61.768ZM57.5376 60.1947C55.1601 59.1067 53.2215 57.5843 51.7037 55.6272L50.1233 56.8528C51.8482 59.077 54.0483 60.7973 56.7054 62.0133L57.5376 60.1947ZM51.6817 56.8802L57.4417 49.9682L55.9053 48.6878L50.1453 55.5998L51.6817 56.8802ZM55.8785 49.9347C57.1703 51.6273 58.5569 52.9563 60.0475 53.888L61.1075 52.192C59.8675 51.417 58.6514 50.2714 57.4685 48.7213L55.8785 49.9347ZM60.067 53.8999C61.5858 54.8017 63.2341 55.256 64.9935 55.256V53.256C63.5956 53.256 62.2998 52.8996 61.088 52.1801L60.067 53.8999ZM64.9935 55.256C67.3047 55.256 69.2069 54.5715 70.5061 53.0492C71.7795 51.5571 72.3295 49.4255 72.3295 46.832H70.3295C70.3295 49.1879 69.8235 50.7682 68.9849 51.7508C68.1721 52.7031 66.9063 53.256 64.9935 53.256V55.256ZM72.3295 46.832V25.52H70.3295V46.832H72.3295ZM71.3295 24.52H55.5855V26.52H71.3295V24.52ZM56.5855 25.52V17.2H54.5855V25.52H56.5855ZM55.5855 18.2H81.6335V16.2H55.5855V18.2ZM80.6335 17.2V46.256H82.6335V17.2H80.6335ZM80.6335 46.256C80.6335 51.6538 79.3048 55.4905 76.8304 57.9649L78.2446 59.3791C81.2316 56.3922 82.6335 51.9516 82.6335 46.256H80.6335ZM76.8304 57.9649C74.348 60.4473 70.6313 61.768 65.5055 61.768V63.768C70.961 63.768 75.2657 62.358 78.2446 59.3791L76.8304 57.9649ZM89.8905 47.984H88.8905V48.984H89.8905V47.984ZM89.8905 39.984V38.984H88.8905V39.984H89.8905ZM108.003 39.984H109.003V38.984H108.003V39.984ZM108.003 47.984V48.984H109.003V47.984H108.003ZM90.8905 47.984V39.984H88.8905V47.984H90.8905ZM89.8905 40.984H108.003V38.984H89.8905V40.984ZM107.003 39.984V47.984H109.003V39.984H107.003ZM108.003 46.984H89.8905V48.984H108.003V46.984ZM116.562 62H115.562V63H116.562V62ZM116.562 17.2V16.2H115.562V17.2H116.562ZM146.322 19.184L145.907 20.094L145.918 20.0989L146.322 19.184ZM146.322 47.728L146.726 48.643L146.737 48.6379L146.322 47.728ZM122.322 49.648L121.61 48.9458L119.931 50.648H122.322V49.648ZM126.93 44.976H127.93V42.538L126.218 44.2738L126.93 44.976ZM126.93 62V63H127.93V62H126.93ZM126.93 46.128L126.2 46.811L127.93 48.6616V46.128H126.93ZM122.322 41.2V40.2H120.018L121.592 41.883L122.322 41.2ZM122.322 25.648L121.592 24.965L120.018 26.648H122.322V25.648ZM126.93 20.72H127.93V18.1864L126.2 20.037L126.93 20.72ZM117.562 62V17.2H115.562V62H117.562ZM116.562 18.2H135.954V16.2H116.562V18.2ZM135.954 18.2C139.857 18.2 143.165 18.8439 145.907 20.094L146.737 18.2741C143.676 16.8788 140.072 16.2 135.954 16.2V18.2ZM145.918 20.0989C148.659 21.308 150.74 23.0429 152.203 25.2965L153.881 24.2075C152.186 21.5971 149.788 19.6199 146.726 18.2691L145.918 20.0989ZM152.203 25.2965C153.66 27.5414 154.41 30.2465 154.41 33.456H156.41C156.41 29.9242 155.581 26.8266 153.881 24.2075L152.203 25.2965ZM154.41 33.456C154.41 36.62 153.662 39.3046 152.203 41.5515L153.881 42.6405C155.58 40.0234 156.41 36.948 156.41 33.456H154.41ZM152.203 41.5515C150.738 43.8081 148.653 45.5662 145.907 46.8181L146.737 48.6379C149.793 47.2444 152.188 45.2479 153.881 42.6405L152.203 41.5515ZM145.918 46.8131C143.173 48.0242 139.861 48.648 135.954 48.648V50.648C140.068 50.648 143.668 49.9919 146.726 48.643L145.918 46.8131ZM135.954 48.648H122.322V50.648H135.954V48.648ZM123.034 50.3502L127.642 45.6782L126.218 44.2738L121.61 48.9458L123.034 50.3502ZM125.93 44.976V62H127.93V44.976H125.93ZM126.93 61H116.562V63H126.93V61ZM127.66 45.445L123.052 40.517L121.592 41.883L126.2 46.811L127.66 45.445ZM122.322 42.2H135.378V40.2H122.322V42.2ZM135.378 42.2C138.695 42.2 141.365 41.4959 143.2 39.9084L141.892 38.3956C140.57 39.5387 138.461 40.2 135.378 40.2V42.2ZM143.2 39.9084C145.036 38.3209 145.914 36.1253 145.914 33.456H143.914C143.914 35.6507 143.214 37.2524 141.892 38.3956L143.2 39.9084ZM145.914 33.456C145.914 30.7503 145.04 28.5306 143.2 26.9396L141.892 28.4524C143.21 29.5921 143.914 31.2124 143.914 33.456H145.914ZM143.2 26.9396C141.365 25.3521 138.695 24.648 135.378 24.648V26.648C138.461 26.648 140.57 27.3093 141.892 28.4524L143.2 26.9396ZM135.378 24.648H122.322V26.648H135.378V24.648ZM123.052 26.331L127.66 21.403L126.2 20.037L121.592 24.965L123.052 26.331ZM125.93 20.72V46.128H127.93V20.72H125.93ZM217.812 62H216.812V63H217.812V62ZM217.812 17.2V16.2H216.812V17.2H217.812ZM226.388 17.2L227.161 16.5662L226.861 16.2H226.388V17.2ZM252.82 49.456V50.456H254.932L253.593 48.8222L252.82 49.456ZM248.66 49.456H247.66V50.456H248.66V49.456ZM248.66 17.2V16.2H247.66V17.2H248.66ZM258.9 17.2H259.9V16.2H258.9V17.2ZM258.9 62V63H259.9V62H258.9ZM250.388 62L249.615 62.6347L249.915 63H250.388V62ZM223.892 29.744V28.744H221.776L223.119 30.3787L223.892 29.744ZM228.052 29.744H229.052V28.744H228.052V29.744ZM228.052 62V63H229.052V62H228.052ZM218.812 62V17.2H216.812V62H218.812ZM217.812 18.2H226.388V16.2H217.812V18.2ZM225.615 17.8338L252.047 50.0898L253.593 48.8222L227.161 16.5662L225.615 17.8338ZM252.82 48.456H248.66V50.456H252.82V48.456ZM249.66 49.456V17.2H247.66V49.456H249.66ZM248.66 18.2H258.9V16.2H248.66V18.2ZM257.9 17.2V62H259.9V17.2H257.9ZM258.9 61H250.388V63H258.9V61ZM251.161 61.3653L224.665 29.1093L223.119 30.3787L249.615 62.6347L251.161 61.3653ZM223.892 30.744H228.052V28.744H223.892V30.744ZM227.052 29.744V62H229.052V29.744H227.052ZM228.052 61H217.812V63H228.052V61ZM278.78 62H277.78V63H278.78V62ZM278.78 25.648H279.78V24.648H278.78V25.648ZM264.444 25.648H263.444V26.648H264.444V25.648ZM264.444 17.2V16.2H263.444V17.2H264.444ZM303.484 17.2H304.484V16.2H303.484V17.2ZM303.484 25.648V26.648H304.484V25.648H303.484ZM289.148 25.648V24.648H288.148V25.648H289.148ZM289.148 62V63H290.148V62H289.148ZM279.78 62V25.648H277.78V62H279.78ZM278.78 24.648H264.444V26.648H278.78V24.648ZM265.444 25.648V17.2H263.444V25.648H265.444ZM264.444 18.2H303.484V16.2H264.444V18.2ZM302.484 17.2V25.648H304.484V17.2H302.484ZM303.484 24.648H289.148V26.648H303.484V24.648ZM288.148 25.648V62H290.148V25.648H288.148ZM289.148 61H278.78V63H289.148V61ZM318.598 35.248V34.248H317.598V35.248H318.598ZM340.166 35.248H341.166V34.248H340.166V35.248ZM340.166 43.312V44.312H341.166V43.312H340.166ZM318.598 43.312H317.598V44.312H318.598V43.312ZM319.366 53.68H318.366V54.68H319.366V53.68ZM343.75 53.68H344.75V52.68H343.75V53.68ZM343.75 62V63H344.75V62H343.75ZM309.062 62H308.062V63H309.062V62ZM309.062 17.2V16.2H308.062V17.2H309.062ZM342.918 17.2H343.918V16.2H342.918V17.2ZM342.918 25.52V26.52H343.918V25.52H342.918ZM319.366 25.52V24.52H318.366V25.52H319.366ZM318.598 36.248H340.166V34.248H318.598V36.248ZM339.166 35.248V43.312H341.166V35.248H339.166ZM340.166 42.312H318.598V44.312H340.166V42.312ZM319.598 43.312V35.248H317.598V43.312H319.598ZM319.366 54.68H343.75V52.68H319.366V54.68ZM342.75 53.68V62H344.75V53.68H342.75ZM343.75 61H309.062V63H343.75V61ZM310.062 62V17.2H308.062V62H310.062ZM309.062 18.2H342.918V16.2H309.062V18.2ZM341.918 17.2V25.52H343.918V17.2H341.918ZM342.918 24.52H319.366V26.52H342.918V24.52ZM318.366 25.52V53.68H320.366V25.52H318.366Z" fill="black"/>
</g>
</g>
<g filter="url(#filter1_i_60_545)">
<path d="M188 62C201.807 62 213 50.8071 213 37C213 23.1929 201.807 12 188 12C174.193 12 163 23.1929 163 37C163 50.8071 174.193 62 188 62Z" fill="#DB5192"/>
</g>
<path d="M188 60C200.703 60 211 49.7025 211 37C211 24.2975 200.703 14 188 14C175.297 14 165 24.2975 165 37C165 49.7025 175.297 60 188 60Z" fill="#FFCC57"/>
<path d="M188 59.5C200.426 59.5 210.5 49.4264 210.5 37C210.5 24.5736 200.426 14.5 188 14.5C175.574 14.5 165.5 24.5736 165.5 37C165.5 49.4264 175.574 59.5 188 59.5Z" stroke="black" stroke-opacity="0.2"/>
<path d="M188 57C199.046 57 208 48.0457 208 37C208 25.9543 199.046 17 188 17C176.954 17 168 25.9543 168 37C168 48.0457 176.954 57 188 57Z" fill="#DB5192"/>
<path d="M188 56.5C198.77 56.5 207.5 47.7696 207.5 37C207.5 26.2304 198.77 17.5 188 17.5C177.23 17.5 168.5 26.2304 168.5 37C168.5 47.7696 177.23 56.5 188 56.5Z" stroke="black" stroke-opacity="0.2"/>
<path d="M188 54C197.389 54 205 46.3888 205 37C205 27.6112 197.389 20 188 20C178.611 20 171 27.6112 171 37C171 46.3888 178.611 54 188 54Z" fill="#FFCC57"/>
<path d="M188 53.5C197.113 53.5 204.5 46.1127 204.5 37C204.5 27.8873 197.113 20.5 188 20.5C178.887 20.5 171.5 27.8873 171.5 37C171.5 46.1127 178.887 53.5 188 53.5Z" stroke="black" stroke-opacity="0.2"/>
<path d="M188 51C195.732 51 202 44.732 202 37C202 29.268 195.732 23 188 23C180.268 23 174 29.268 174 37C174 44.732 180.268 51 188 51Z" fill="white" fill-opacity="0.4"/>
<path d="M188 50.5C195.456 50.5 201.5 44.4558 201.5 37C201.5 29.5442 195.456 23.5 188 23.5C180.544 23.5 174.5 29.5442 174.5 37C174.5 44.4558 180.544 50.5 188 50.5Z" stroke="black" stroke-opacity="0.2"/>
<path d="M188 48.5C194.351 48.5 199.5 43.3513 199.5 37C199.5 30.6487 194.351 25.5 188 25.5C181.649 25.5 176.5 30.6487 176.5 37C176.5 43.3513 181.649 48.5 188 48.5Z" fill="black" fill-opacity="0.5" stroke="black"/>
<path d="M188 46.5C193.247 46.5 197.5 42.2467 197.5 37C197.5 31.7533 193.247 27.5 188 27.5C182.753 27.5 178.5 31.7533 178.5 37C178.5 42.2467 182.753 46.5 188 46.5Z" fill="black" fill-opacity="0.6" stroke="black"/>
<path d="M188 44.5C192.142 44.5 195.5 41.1421 195.5 37C195.5 32.8579 192.142 29.5 188 29.5C183.858 29.5 180.5 32.8579 180.5 37C180.5 41.1421 183.858 44.5 188 44.5Z" fill="black" fill-opacity="0.5" stroke="black"/>
<path d="M188 42.5C191.038 42.5 193.5 40.0376 193.5 37C193.5 33.9624 191.038 31.5 188 31.5C184.962 31.5 182.5 33.9624 182.5 37C182.5 40.0376 184.962 42.5 188 42.5Z" fill="black" fill-opacity="0.4" stroke="black"/>
<path d="M188 41C190.209 41 192 39.2091 192 37C192 34.7909 190.209 33 188 33C185.791 33 184 34.7909 184 37C184 39.2091 185.791 41 188 41Z" fill="black"/>
<path d="M188 40.5C189.933 40.5 191.5 38.933 191.5 37C191.5 35.067 189.933 33.5 188 33.5C186.067 33.5 184.5 35.067 184.5 37C184.5 38.933 186.067 40.5 188 40.5Z" stroke="black" stroke-opacity="0.2"/>
<g filter="url(#filter2_f_60_545)">
<path d="M188 38C188.552 38 189 37.5523 189 37C189 36.4477 188.552 36 188 36C187.448 36 187 36.4477 187 37C187 37.5523 187.448 38 188 38Z" fill="white"/>
</g>
<defs>
<filter id="filter0_d_60_545" x="0.312012" y="16.2" width="348.438" height="55.568" filterUnits="userSpaceOnUse" color-interpolation-filters="sRGB">
<feFlood flood-opacity="0" result="BackgroundImageFix"/>
<feColorMatrix in="SourceAlpha" type="matrix" values="0 0 0 0 0 0 0 0 0 0 0 0 0 0 0 0 0 0 127 0" result="hardAlpha"/>
<feOffset dy="4"/>
<feGaussianBlur stdDeviation="2"/>
<feComposite in2="hardAlpha" operator="out"/>
<feColorMatrix type="matrix" values="0 0 0 0 0 0 0 0 0 0 0 0 0 0 0 0 0 0 0.25 0"/>
<feBlend mode="normal" in2="BackgroundImageFix" result="effect1_dropShadow_60_545"/>
<feBlend mode="normal" in="SourceGraphic" in2="effect1_dropShadow_60_545" result="shape"/>
</filter>
<filter id="filter1_i_60_545" x="163" y="12" width="50" height="54" filterUnits="userSpaceOnUse" color-interpolation-filters="sRGB">
<feFlood flood-opacity="0" result="BackgroundImageFix"/>
<feBlend mode="normal" in="SourceGraphic" in2="BackgroundImageFix" result="shape"/>
<feColorMatrix in="SourceAlpha" type="matrix" values="0 0 0 0 0 0 0 0 0 0 0 0 0 0 0 0 0 0 127 0" result="hardAlpha"/>
<feOffset dy="4"/>
<feGaussianBlur stdDeviation="2"/>
<feComposite in2="hardAlpha" operator="arithmetic" k2="-1" k3="1"/>
<feColorMatrix type="matrix" values="0 0 0 0 0 0 0 0 0 0 0 0 0 0 0 0 0 0 0.25 0"/>
<feBlend mode="normal" in2="shape" result="effect1_innerShadow_60_545"/>
</filter>
<filter id="filter2_f_60_545" x="183" y="32" width="10" height="10" filterUnits="userSpaceOnUse" color-interpolation-filters="sRGB">
<feFlood flood-opacity="0" result="BackgroundImageFix"/>
<feBlend mode="normal" in="SourceGraphic" in2="BackgroundImageFix" result="shape"/>
<feGaussianBlur stdDeviation="2" result="effect1_foregroundBlur_60_545"/>
</filter>
</defs>
</svg>
