<svg width="32" height="33" viewBox="0 0 32 33" fill="none" xmlns="http://www.w3.org/2000/svg">
<g clip-path="url(#clip0_153_120)">
<mask id="mask0_153_120" style="mask-type:luminance" maskUnits="userSpaceOnUse" x="1" y="4" width="27" height="27">
<path d="M27.5543 30.9683H1.138V4.552H27.5543V30.9683Z" fill="white"/>
</mask>
<g mask="url(#mask0_153_120)">
<g filter="url(#filter0_i_153_120)">
<path d="M14.3461 4.552C21.6408 4.552 27.5543 10.4655 27.5543 17.7601C27.5543 25.0548 21.6408 30.9683 14.3461 30.9683C7.05149 30.9683 1.138 25.0548 1.138 17.7601C1.138 10.4655 7.05149 4.552 14.3461 4.552Z" fill="#DB5192"/>
</g>
<path d="M14.3461 5.60867C21.0572 5.60867 26.4976 11.0491 26.4976 17.7601C26.4976 24.4712 21.0572 29.9116 14.3461 29.9116C7.63508 29.9116 2.19466 24.4712 2.19466 17.7601C2.19466 11.0491 7.63508 5.60867 14.3461 5.60867Z" fill="#FFCC57"/>
<path d="M14.3461 5.87307C20.9113 5.87307 26.2334 11.1952 26.2334 17.7604C26.2334 24.3256 20.9113 29.6477 14.3461 29.6477C7.78093 29.6477 2.4588 24.3256 2.4588 17.7604C2.4588 11.1952 7.78093 5.87307 14.3461 5.87307Z" stroke="black" stroke-opacity="0.2" stroke-width="0.528325"/>
<path d="M14.3461 7.19366C20.1818 7.19366 24.9126 11.9244 24.9126 17.7602C24.9126 23.5959 20.1818 28.3267 14.3461 28.3267C8.51038 28.3267 3.7796 23.5959 3.7796 17.7602C3.7796 11.9244 8.51038 7.19366 14.3461 7.19366Z" fill="#DB5192"/>
<path d="M14.3461 7.45758C20.036 7.45758 24.6485 12.0701 24.6485 17.7599C24.6485 23.4498 20.036 28.0623 14.3461 28.0623C8.65629 28.0623 4.0438 23.4498 4.0438 17.7599C4.0438 12.0701 8.65629 7.45758 14.3461 7.45758Z" stroke="black" stroke-opacity="0.2" stroke-width="0.528325"/>
<path d="M14.3461 8.7784C19.3065 8.7784 23.3277 12.7996 23.3277 17.7599C23.3277 22.7203 19.3065 26.7415 14.3461 26.7415C9.38579 26.7415 5.3646 22.7203 5.3646 17.7599C5.3646 12.7996 9.38579 8.7784 14.3461 8.7784Z" fill="#FFCC57"/>
<path d="M14.3461 9.04256C19.1606 9.04256 23.0635 12.9455 23.0635 17.7599C23.0635 22.5744 19.1606 26.4773 14.3461 26.4773C9.53162 26.4773 5.62872 22.5744 5.62872 17.7599C5.62872 12.9455 9.53162 9.04256 14.3461 9.04256Z" stroke="black" stroke-opacity="0.2" stroke-width="0.528325"/>
<path d="M14.3461 10.3634C18.4311 10.3634 21.7427 13.6749 21.7427 17.7599C21.7427 21.845 18.4311 25.1565 14.3461 25.1565C10.2611 25.1565 6.94958 21.845 6.94958 17.7599C6.94958 13.6749 10.2611 10.3634 14.3461 10.3634Z" fill="white" fill-opacity="0.4"/>
<path d="M14.3461 10.6278C18.2852 10.6278 21.4785 13.8211 21.4785 17.7602C21.4785 21.6993 18.2852 24.8926 14.3461 24.8926C10.407 24.8926 7.21374 21.6993 7.21374 17.7602C7.21374 13.8211 10.407 10.6278 14.3461 10.6278Z" stroke="black" stroke-opacity="0.2" stroke-width="0.528325"/>
<path d="M14.3461 11.6845C17.7017 11.6845 20.4218 14.4046 20.4218 17.7602C20.4218 21.1157 17.7017 23.8359 14.3461 23.8359C10.9906 23.8359 8.27037 21.1157 8.27037 17.7602C8.27037 14.4046 10.9906 11.6845 14.3461 11.6845Z" fill="black" fill-opacity="0.5" stroke="black" stroke-width="0.528325"/>
<path d="M14.3461 12.7411C17.1181 12.7411 19.3652 14.9882 19.3652 17.7602C19.3652 20.5322 17.1181 22.7793 14.3461 22.7793C11.5741 22.7793 9.32702 20.5322 9.32702 17.7602C9.32702 14.9882 11.5741 12.7411 14.3461 12.7411Z" fill="black" fill-opacity="0.6" stroke="black" stroke-width="0.528325"/>
<path d="M14.3461 13.797C16.5345 13.797 18.3085 15.5711 18.3085 17.7595C18.3085 19.9479 16.5345 21.7219 14.3461 21.7219C12.1577 21.7219 10.3837 19.9479 10.3837 17.7595C10.3837 15.5711 12.1577 13.797 14.3461 13.797Z" fill="black" fill-opacity="0.5" stroke="black" stroke-width="0.528325"/>
<path d="M14.3461 14.8542C15.951 14.8542 17.2519 16.1551 17.2519 17.76C17.2519 19.3648 15.951 20.6658 14.3461 20.6658C12.7413 20.6658 11.4403 19.3648 11.4403 17.76C11.4403 16.1551 12.7413 14.8542 14.3461 14.8542Z" fill="black" fill-opacity="0.4" stroke="black" stroke-width="0.528325"/>
<path d="M14.3461 15.6467C15.5132 15.6467 16.4594 16.5929 16.4594 17.76C16.4594 18.9271 15.5132 19.8733 14.3461 19.8733C13.179 19.8733 12.2328 18.9271 12.2328 17.76C12.2328 16.5929 13.179 15.6467 14.3461 15.6467Z" fill="black"/>
<path d="M14.3461 15.9111C15.3674 15.9111 16.1953 16.739 16.1953 17.7602C16.1953 18.7815 15.3674 19.6094 14.3461 19.6094C13.3249 19.6094 12.497 18.7815 12.497 17.7602C12.497 16.739 13.3249 15.9111 14.3461 15.9111Z" stroke="black" stroke-opacity="0.2" stroke-width="0.528325"/>
<g filter="url(#filter1_f_153_120)">
<path d="M14.3461 17.2317C14.6379 17.2317 14.8744 17.4682 14.8744 17.76C14.8744 18.0518 14.6379 18.2883 14.3461 18.2883C14.0543 18.2883 13.8178 18.0518 13.8178 17.76C13.8178 17.4682 14.0543 17.2317 14.3461 17.2317Z" fill="white"/>
</g>
</g>
</g>
<rect x="-0.568965" y="0.568965" width="27.5542" height="27.5542" rx="13.7771" transform="matrix(1 0 0 -1 1.138 32.1062)" stroke="white" stroke-width="1.13793"/>
<path fill-rule="evenodd" clip-rule="evenodd" d="M26.9316 6.42603L22.3074 20.6638L18.5752 23.9884L19.5841 26.3769L20.3381 25.1129L21.2196 27.7246L21.0921 27.1306L21.2116 24.232L22.6424 21.7114L28.3598 7.82954L26.9316 6.42603Z" fill="white" stroke="white" stroke-width="0.580345" stroke-linecap="round" stroke-linejoin="round"/>
<path fill-rule="evenodd" clip-rule="evenodd" d="M27.1177 1.13794L26.7982 6.44393L28.3825 7.93374L29.2357 1.25075L27.1177 1.13794Z" fill="white" stroke="white" stroke-width="0.435259" stroke-linecap="round" stroke-linejoin="round"/>
<path fill-rule="evenodd" clip-rule="evenodd" d="M27.3518 5.92188L27.4003 6.68471L28.1487 7.34121L28.0104 6.74377L27.3518 5.92188Z" fill="white" stroke="white" stroke-width="0.435259" stroke-linecap="round" stroke-linejoin="round"/>
<path d="M25.7729 2.27644L25.7802 3.69209C25.7823 4.09123 26.1261 4.41561 26.5482 4.41661L28.962 4.42236C29.3841 4.42336 29.7246 4.10061 29.7226 3.70147L29.7152 2.28582C29.7132 1.88668 29.3693 1.5623 28.9472 1.5613L26.5334 1.55555C26.1113 1.55455 25.7708 1.8773 25.7729 2.27644Z" fill="white" stroke="white" stroke-width="2.18665" stroke-linecap="round" stroke-linejoin="round"/>
<defs>
<filter id="filter0_i_153_120" x="1.138" y="4.552" width="26.4163" height="28.5296" filterUnits="userSpaceOnUse" color-interpolation-filters="sRGB">
<feFlood flood-opacity="0" result="BackgroundImageFix"/>
<feBlend mode="normal" in="SourceGraphic" in2="BackgroundImageFix" result="shape"/>
<feColorMatrix in="SourceAlpha" type="matrix" values="0 0 0 0 0 0 0 0 0 0 0 0 0 0 0 0 0 0 127 0" result="hardAlpha"/>
<feOffset dy="2.1133"/>
<feGaussianBlur stdDeviation="1.05665"/>
<feComposite in2="hardAlpha" operator="arithmetic" k2="-1" k3="1"/>
<feColorMatrix type="matrix" values="0 0 0 0 0 0 0 0 0 0 0 0 0 0 0 0 0 0 0.25 0"/>
<feBlend mode="normal" in2="shape" result="effect1_innerShadow_153_120"/>
</filter>
<filter id="filter1_f_153_120" x="11.7045" y="15.1184" width="5.28325" height="5.28324" filterUnits="userSpaceOnUse" color-interpolation-filters="sRGB">
<feFlood flood-opacity="0" result="BackgroundImageFix"/>
<feBlend mode="normal" in="SourceGraphic" in2="BackgroundImageFix" result="shape"/>
<feGaussianBlur stdDeviation="1.05665" result="effect1_foregroundBlur_153_120"/>
</filter>
<clipPath id="clip0_153_120">
<rect width="26.4163" height="26.4163" rx="13.2081" transform="matrix(1 0 0 -1 1.138 30.9683)" fill="white"/>
</clipPath>
</defs>
</svg>
