<svg width="29" height="27" viewBox="0 0 29 27" fill="none" xmlns="http://www.w3.org/2000/svg">
<path d="M29 20.043C29 19.5181 28.5822 19.0808 28.0538 19.0808C27.7958 19.0808 27.5623 19.1808 27.3903 19.3557L22.3153 24.5289L19.3907 21.5549L19.3784 21.5799C19.2064 21.4425 18.9975 21.3675 18.764 21.3675C18.211 21.3675 17.7564 21.8298 17.7564 22.3921C17.7564 22.717 17.9038 23.0169 18.1496 23.2043L21.6148 26.7281C21.6148 26.7281 21.6148 26.7281 21.6271 26.7406C21.6271 26.7406 21.6271 26.7406 21.6394 26.7531L21.7008 26.8156C22.0203 27.0655 22.475 27.0655 22.7822 26.7906C22.7945 26.7781 22.8068 26.7656 22.8191 26.7531C22.8314 26.7406 22.8436 26.7281 22.8559 26.7156L28.6805 20.8552C28.8525 20.6178 29 20.3429 29 20.043ZM18.5919 19.3432C18.8131 19.6181 19.1449 19.793 19.5136 19.793C20.1648 19.793 20.6932 19.2557 20.7055 18.581C20.7055 18.2061 20.5581 17.8562 20.2263 17.5313C19.0097 16.3942 17.5597 15.5195 15.9623 14.9697C18.3093 13.5952 19.9068 10.9961 19.9068 8.02218C19.9068 3.59874 16.3801 0 12.0178 0C7.6678 0 4.12881 3.58624 4.12881 8.02218C4.12881 10.9961 5.72627 13.6077 8.11017 14.9822C3.79703 16.4817 0.589831 20.3803 0 25.1037C0 25.8659 0.614407 26.4907 1.36398 26.4907C2.11356 26.4907 2.65424 25.8659 2.65424 25.1037C3.34237 20.4053 7.32373 16.8066 12.1407 16.8066C14.6229 16.8191 16.8839 17.7813 18.5919 19.3432ZM12.1407 13.4578C9.03178 13.4578 6.525 10.8962 6.525 7.74728C6.525 4.59838 9.04407 2.03678 12.1407 2.03678C15.2373 2.03678 17.7564 4.59838 17.7564 7.74728C17.7564 10.8962 15.2373 13.4578 12.1407 13.4578Z" fill="white"/>
</svg>
