<svg width="31" height="29" viewBox="0 0 31 29" fill="none" xmlns="http://www.w3.org/2000/svg">
<mask id="path-1-outside-1_232_400" maskUnits="userSpaceOnUse" x="0" y="0" width="31" height="29" fill="black">
<rect fill="white" width="31" height="29"/>
<path d="M30 21.043C30 20.5181 29.5822 20.0808 29.0538 20.0808C28.7958 20.0808 28.5623 20.1808 28.3903 20.3557L23.3153 25.5289L20.3907 22.5549L20.3784 22.5799C20.2064 22.4425 19.9975 22.3675 19.764 22.3675C19.211 22.3675 18.7564 22.8298 18.7564 23.3921C18.7564 23.717 18.9038 24.0169 19.1496 24.2043L22.6148 27.7281C22.6148 27.7281 22.6148 27.7281 22.6271 27.7406C22.6271 27.7406 22.6271 27.7406 22.6394 27.7531L22.7008 27.8156C23.0203 28.0655 23.475 28.0655 23.7822 27.7906C23.7945 27.7781 23.8068 27.7656 23.8191 27.7531C23.8314 27.7406 23.8436 27.7281 23.8559 27.7156L29.6805 21.8552C29.8525 21.6178 30 21.3429 30 21.043ZM19.5919 20.3432C19.8131 20.6181 20.1449 20.793 20.5136 20.793C21.1648 20.793 21.6932 20.2557 21.7055 19.581C21.7055 19.2061 21.5581 18.8562 21.2263 18.5313C20.0097 17.3942 18.5597 16.5195 16.9623 15.9697C19.3093 14.5952 20.9068 11.9961 20.9068 9.02218C20.9068 4.59874 17.3801 1 13.0178 1C8.6678 1 5.12881 4.58624 5.12881 9.02218C5.12881 11.9961 6.72627 14.6077 9.11017 15.9822C4.79703 17.4817 1.58983 21.3803 1 26.1037C1 26.8659 1.61441 27.4907 2.36398 27.4907C3.11356 27.4907 3.65424 26.8659 3.65424 26.1037C4.34237 21.4053 8.32373 17.8066 13.1407 17.8066C15.6229 17.8191 17.8839 18.7813 19.5919 20.3432ZM13.1407 14.4578C10.0318 14.4578 7.525 11.8962 7.525 8.74728C7.525 5.59838 10.0441 3.03678 13.1407 3.03678C16.2373 3.03678 18.7564 5.59838 18.7564 8.74728C18.7564 11.8962 16.2373 14.4578 13.1407 14.4578Z"/>
</mask>
<path d="M30 21.043C30 20.5181 29.5822 20.0808 29.0538 20.0808C28.7958 20.0808 28.5623 20.1808 28.3903 20.3557L23.3153 25.5289L20.3907 22.5549L20.3784 22.5799C20.2064 22.4425 19.9975 22.3675 19.764 22.3675C19.211 22.3675 18.7564 22.8298 18.7564 23.3921C18.7564 23.717 18.9038 24.0169 19.1496 24.2043L22.6148 27.7281C22.6148 27.7281 22.6148 27.7281 22.6271 27.7406C22.6271 27.7406 22.6271 27.7406 22.6394 27.7531L22.7008 27.8156C23.0203 28.0655 23.475 28.0655 23.7822 27.7906C23.7945 27.7781 23.8068 27.7656 23.8191 27.7531C23.8314 27.7406 23.8436 27.7281 23.8559 27.7156L29.6805 21.8552C29.8525 21.6178 30 21.3429 30 21.043ZM19.5919 20.3432C19.8131 20.6181 20.1449 20.793 20.5136 20.793C21.1648 20.793 21.6932 20.2557 21.7055 19.581C21.7055 19.2061 21.5581 18.8562 21.2263 18.5313C20.0097 17.3942 18.5597 16.5195 16.9623 15.9697C19.3093 14.5952 20.9068 11.9961 20.9068 9.02218C20.9068 4.59874 17.3801 1 13.0178 1C8.6678 1 5.12881 4.58624 5.12881 9.02218C5.12881 11.9961 6.72627 14.6077 9.11017 15.9822C4.79703 17.4817 1.58983 21.3803 1 26.1037C1 26.8659 1.61441 27.4907 2.36398 27.4907C3.11356 27.4907 3.65424 26.8659 3.65424 26.1037C4.34237 21.4053 8.32373 17.8066 13.1407 17.8066C15.6229 17.8191 17.8839 18.7813 19.5919 20.3432ZM13.1407 14.4578C10.0318 14.4578 7.525 11.8962 7.525 8.74728C7.525 5.59838 10.0441 3.03678 13.1407 3.03678C16.2373 3.03678 18.7564 5.59838 18.7564 8.74728C18.7564 11.8962 16.2373 14.4578 13.1407 14.4578Z" fill="white"/>
<path d="M28.3903 20.3557L27.8912 19.8649L27.8906 19.8655L28.3903 20.3557ZM23.3153 25.5289L22.8162 26.0197L23.3159 26.5278L23.8149 26.0191L23.3153 25.5289ZM20.3907 22.5549L20.8898 22.0641L20.1979 21.3606L19.7625 22.246L20.3907 22.5549ZM20.3784 22.5799L19.9414 23.1268L20.6221 23.6706L21.0066 22.8888L20.3784 22.5799ZM19.1496 24.2043L19.6487 23.7135L19.6137 23.678L19.5741 23.6477L19.1496 24.2043ZM22.6148 27.7281L22.1157 28.2189L22.6148 27.7281ZM22.6271 27.7406L22.128 28.2314L22.7367 28.8504L23.2126 28.1243L22.6271 27.7406ZM22.6394 27.7531L22.1403 28.2439L22.6394 27.7531ZM22.7008 27.8156L22.2017 28.3064L22.2337 28.3389L22.2696 28.3669L22.7008 27.8156ZM23.7822 27.7906L24.249 28.3122L24.2656 28.2973L24.2813 28.2814L23.7822 27.7906ZM23.8559 27.7156L23.3594 27.2222L23.3568 27.2248L23.8559 27.7156ZM29.6805 21.8552L30.177 22.3486L30.2154 22.31L30.2473 22.2659L29.6805 21.8552ZM19.5919 20.3432L20.1373 19.9044L20.1038 19.8627L20.0643 19.8266L19.5919 20.3432ZM21.7055 19.581L22.4055 19.5937V19.581H21.7055ZM21.2263 18.5313L21.716 18.0312L21.7102 18.0255L21.7043 18.02L21.2263 18.5313ZM16.9623 15.9697L16.6085 15.3657L15.2937 16.1357L16.7345 16.6316L16.9623 15.9697ZM9.11017 15.9822L9.34003 16.6434L10.7863 16.1406L9.45982 15.3758L9.11017 15.9822ZM1 26.1037L0.305395 26.0169L0.3 26.0601V26.1037H1ZM3.65424 26.1037L2.96163 26.0022L2.95424 26.0527V26.1037H3.65424ZM13.1407 17.8066L13.1442 17.1066H13.1407V17.8066ZM30.7 21.043C30.7 20.1486 29.9857 19.3808 29.0538 19.3808V20.7808C29.1787 20.7808 29.3 20.8877 29.3 21.043H30.7ZM29.0538 19.3808C28.6091 19.3808 28.1955 19.5554 27.8912 19.8649L28.8894 20.8465C28.929 20.8061 28.9824 20.7808 29.0538 20.7808V19.3808ZM27.8906 19.8655L22.8156 25.0387L23.8149 26.0191L28.8899 20.8459L27.8906 19.8655ZM23.8144 25.0381L20.8898 22.0641L19.8916 23.0457L22.8162 26.0197L23.8144 25.0381ZM19.7625 22.246L19.7502 22.271L21.0066 22.8888L21.0188 22.8638L19.7625 22.246ZM20.8153 22.033C20.5183 21.7957 20.1551 21.6675 19.764 21.6675V23.0675C19.8399 23.0675 19.8944 23.0892 19.9414 23.1268L20.8153 22.033ZM19.764 21.6675C18.8134 21.6675 18.0564 22.4543 18.0564 23.3921H19.4564C19.4564 23.2053 19.6086 23.0675 19.764 23.0675V21.6675ZM18.0564 23.3921C18.0564 23.9279 18.2999 24.4367 18.7251 24.7609L19.5741 23.6477C19.5078 23.5972 19.4564 23.5061 19.4564 23.3921H18.0564ZM18.6505 24.6952L22.1157 28.2189L23.1139 27.2373L19.6487 23.7135L18.6505 24.6952ZM22.6148 27.7281C22.1156 28.2188 22.1157 28.2189 22.1157 28.2189C22.1157 28.2189 22.1157 28.2189 22.1157 28.2189C22.1157 28.2189 22.1157 28.2189 22.1157 28.2189C22.1157 28.2189 22.1157 28.2189 22.1157 28.2189C22.1157 28.2189 22.1157 28.2189 22.1157 28.2189C22.1157 28.2189 22.1157 28.2189 22.1157 28.2189C22.1157 28.2189 22.1157 28.2189 22.1157 28.2189C22.1157 28.2189 22.1157 28.2189 22.1157 28.2189C22.1157 28.2189 22.1157 28.2189 22.1157 28.2189C22.1157 28.2189 22.1157 28.2189 22.1157 28.2189C22.1157 28.2189 22.1157 28.2189 22.1157 28.2189C22.1157 28.2189 22.1157 28.2189 22.1157 28.2189C22.1157 28.2189 22.1157 28.2189 22.1157 28.2189C22.1158 28.2189 22.1157 28.2189 22.1158 28.2189C22.1159 28.2191 22.1157 28.2189 22.1159 28.2191C22.1162 28.2194 22.1158 28.219 22.1161 28.2193C22.1162 28.2194 22.1163 28.2195 22.1164 28.2196C22.1169 28.2201 22.1162 28.2194 22.1168 28.22C22.1174 28.2206 22.1163 28.2196 22.117 28.2202C22.117 28.2202 22.1171 28.2203 22.1171 28.2203C22.1171 28.2203 22.1172 28.2204 22.1172 28.2204C22.1172 28.2204 22.1172 28.2204 22.1172 28.2204C22.1172 28.2204 22.1172 28.2204 22.1172 28.2204C22.1172 28.2204 22.1172 28.2204 22.1172 28.2204C22.1172 28.2204 22.1172 28.2204 22.1172 28.2204C22.1173 28.2205 22.1172 28.2205 22.1173 28.2205C22.1193 28.2226 22.1179 28.2211 22.1209 28.2242C22.1239 28.2272 22.1237 28.227 22.128 28.2314L23.1262 27.2498C23.1244 27.2479 23.1196 27.2431 23.1191 27.2426C23.1115 27.2348 23.1255 27.2491 23.1179 27.2414C23.116 27.2394 23.1193 27.2428 23.1174 27.2408C23.1174 27.2408 23.1174 27.2408 23.1174 27.2408C23.1174 27.2408 23.1174 27.2408 23.1173 27.2408C23.1173 27.2408 23.1173 27.2407 23.1173 27.2407C23.1173 27.2407 23.1172 27.2407 23.1172 27.2406C23.1171 27.2405 23.1173 27.2407 23.1172 27.2406C23.1167 27.2401 23.1174 27.2408 23.1169 27.2403C23.1165 27.2399 23.1157 27.239 23.1155 27.2389C23.1139 27.2372 23.116 27.2394 23.1146 27.238C23.1144 27.2378 23.1144 27.2378 23.1143 27.2377C23.1137 27.2371 23.1148 27.2382 23.1142 27.2376C23.1141 27.2374 23.1143 27.2376 23.1141 27.2375C23.114 27.2374 23.114 27.2374 23.114 27.2373C23.1139 27.2373 23.114 27.2373 23.1139 27.2373C23.1139 27.2373 23.1139 27.2373 23.1139 27.2373C23.1139 27.2373 23.1139 27.2373 23.1139 27.2373C23.1139 27.2373 23.1139 27.2373 23.1139 27.2373C23.1139 27.2373 23.1139 27.2373 23.1139 27.2373C23.1139 27.2373 23.1139 27.2373 23.1139 27.2373C23.1139 27.2373 23.1139 27.2373 23.1139 27.2373C23.1139 27.2373 23.1139 27.2373 23.1139 27.2373C23.114 27.2374 23.1141 27.2374 22.6148 27.7281ZM22.6271 27.7406C23.2125 28.1244 22.7234 28.434 22.1684 28.2693C22.1631 28.2647 22.1527 28.2554 22.1476 28.2506C22.1424 28.2457 22.1384 28.2417 22.1377 28.241C22.1351 28.2385 22.1331 28.2366 22.1328 28.2362C22.1315 28.2349 22.1305 28.234 22.1303 28.2338C22.1297 28.2331 22.1292 28.2327 22.1291 28.2326C22.1288 28.2323 22.1286 28.232 22.1286 28.232C22.1284 28.2318 22.1284 28.2318 22.1284 28.2318C22.1285 28.232 22.1289 28.2323 22.1296 28.2331C22.1311 28.2346 22.1342 28.2377 22.1403 28.2439L23.1385 27.2623C23.1324 27.256 23.1293 27.2529 23.1277 27.2513C23.1269 27.2505 23.1265 27.25 23.1262 27.2498C23.1261 27.2496 23.1259 27.2495 23.1257 27.2493C23.1257 27.2492 23.1254 27.249 23.1251 27.2487C23.125 27.2486 23.1245 27.2481 23.1239 27.2474C23.1237 27.2473 23.1227 27.2463 23.1215 27.245C23.1211 27.2446 23.1191 27.2427 23.1166 27.2402C23.1159 27.2395 23.1118 27.2355 23.1066 27.2306C23.1015 27.2259 23.0911 27.2165 23.0859 27.2119C22.5309 27.0473 22.0417 27.3568 22.6271 27.7406ZM22.1403 28.2439L22.2017 28.3064L23.1999 27.3248L23.1385 27.2623L22.1403 28.2439ZM22.2696 28.3669C22.8398 28.813 23.674 28.8267 24.249 28.3122L23.3154 27.2689C23.276 27.3043 23.2008 27.318 23.1321 27.2642L22.2696 28.3669ZM24.2813 28.2814C24.2835 28.2792 24.2837 28.2789 24.2859 28.2767C24.2948 28.2676 24.2816 28.2811 24.2905 28.272C24.2905 28.272 24.2928 28.2697 24.2928 28.2697C24.2939 28.2686 24.294 28.2684 24.2951 28.2673C24.3114 28.2508 24.2811 28.2816 24.2974 28.265C24.2984 28.264 24.2988 28.2636 24.2997 28.2627C24.3025 28.2599 24.3016 28.2607 24.3043 28.258C24.3046 28.2578 24.3087 28.2535 24.309 28.2533C24.311 28.2512 24.3115 28.2507 24.3136 28.2486C24.3182 28.2439 24.3135 28.2486 24.3182 28.2439L23.32 27.2623C23.3178 27.2645 23.3175 27.2648 23.3154 27.267C23.3064 27.276 23.3197 27.2626 23.3107 27.2717C23.3107 27.2717 23.3085 27.274 23.3084 27.274C23.3074 27.2751 23.3072 27.2752 23.3061 27.2763C23.2899 27.2929 23.3201 27.2621 23.3038 27.2787C23.3029 27.2797 23.3025 27.28 23.3015 27.281C23.2988 27.2838 23.2997 27.2829 23.2969 27.2857C23.2967 27.2859 23.2925 27.2902 23.2923 27.2904C23.2902 27.2925 23.2898 27.293 23.2877 27.2951C23.2831 27.2998 23.2877 27.2951 23.2831 27.2998L24.2813 28.2814ZM24.3182 28.2439C24.3203 28.2417 24.3206 28.2414 24.3228 28.2392C24.3317 28.2302 24.3185 28.2436 24.3274 28.2345C24.3274 28.2345 24.3297 28.2322 24.3297 28.2322C24.3308 28.2311 24.3309 28.231 24.332 28.2299C24.3483 28.2133 24.318 28.2441 24.3343 28.2275C24.3353 28.2265 24.3356 28.2262 24.3366 28.2252C24.3393 28.2224 24.3385 28.2233 24.3412 28.2205C24.3414 28.2203 24.3456 28.216 24.3458 28.2158C24.3479 28.2137 24.3483 28.2132 24.3504 28.2111C24.3551 28.2064 24.3504 28.2111 24.355 28.2064L23.3568 27.2248C23.3547 27.227 23.3544 27.2273 23.3522 27.2295C23.3433 27.2386 23.3565 27.2251 23.3476 27.2342C23.3476 27.2342 23.3453 27.2365 23.3453 27.2365C23.3442 27.2376 23.3441 27.2377 23.343 27.2389C23.3267 27.2554 23.357 27.2246 23.3407 27.2412C23.3397 27.2422 23.3394 27.2426 23.3384 27.2435C23.3357 27.2463 23.3365 27.2454 23.3338 27.2482C23.3336 27.2484 23.3294 27.2527 23.3292 27.2529C23.3271 27.255 23.3267 27.2555 23.3246 27.2576C23.3199 27.2623 23.3246 27.2576 23.32 27.2623L24.3182 28.2439ZM24.3524 28.2091L30.177 22.3486L29.184 21.3617L23.3594 27.2222L24.3524 28.2091ZM30.2473 22.2659C30.4454 21.9926 30.7 21.5678 30.7 21.043H29.3C29.3 21.1179 29.2597 21.2429 29.1137 21.4444L30.2473 22.2659ZM19.0466 20.782C19.3902 21.2091 19.9169 21.493 20.5136 21.493V20.093C20.373 20.093 20.2361 20.0271 20.1373 19.9044L19.0466 20.782ZM20.5136 21.493C21.5691 21.493 22.3866 20.627 22.4054 19.5937L21.0056 19.5682C20.9999 19.8845 20.7605 20.093 20.5136 20.093V21.493ZM22.4055 19.581C22.4055 18.9952 22.1651 18.471 21.716 18.0312L20.7365 19.0315C20.951 19.2415 21.0055 19.417 21.0055 19.581H22.4055ZM21.7043 18.02C20.4158 16.8156 18.8805 15.8896 17.1901 15.3078L16.7345 16.6316C18.239 17.1495 19.6037 17.9729 20.7483 19.0427L21.7043 18.02ZM17.316 16.5738C19.8724 15.0766 21.6068 12.2505 21.6068 9.02218H20.2068C20.2068 11.7417 18.7462 14.1138 16.6085 15.3657L17.316 16.5738ZM21.6068 9.02218C21.6068 4.22395 17.7784 0.3 13.0178 0.3V1.7C16.9818 1.7 20.2068 4.97352 20.2068 9.02218H21.6068ZM13.0178 0.3C8.2709 0.3 4.42881 4.21002 4.42881 9.02218H5.82881C5.82881 4.96246 9.06469 1.7 13.0178 1.7V0.3ZM4.42881 9.02218C4.42881 12.2505 6.16343 15.0912 8.76052 16.5887L9.45982 15.3758C7.28911 14.1242 5.82881 11.7418 5.82881 9.02218H4.42881ZM8.88031 15.3211C4.31445 16.9084 0.928082 21.0305 0.305395 26.0169L1.69461 26.1904C2.25158 21.7302 5.27962 18.055 9.34003 16.6434L8.88031 15.3211ZM0.3 26.1037C0.3 27.2414 1.2168 28.1907 2.36398 28.1907V26.7907C2.01201 26.7907 1.7 26.4904 1.7 26.1037H0.3ZM2.36398 28.1907C3.56075 28.1907 4.35424 27.189 4.35424 26.1037H2.95424C2.95424 26.5428 2.66636 26.7907 2.36398 26.7907V28.1907ZM4.34685 26.2051C4.98658 21.8372 8.6844 18.5066 13.1407 18.5066V17.1066C7.96305 17.1066 3.69816 20.9734 2.96163 26.0022L4.34685 26.2051ZM13.1372 18.5066C15.4368 18.5182 17.5329 19.4089 19.1196 20.8598L20.0643 19.8266C18.2349 18.1536 15.8089 17.12 13.1442 17.1066L13.1372 18.5066ZM13.1407 13.7578C10.4304 13.7578 8.225 11.5217 8.225 8.74728H6.825C6.825 12.2707 9.63319 15.1578 13.1407 15.1578V13.7578ZM8.225 8.74728C8.225 5.97389 10.4417 3.73678 13.1407 3.73678V2.33678C9.64647 2.33678 6.825 5.22288 6.825 8.74728H8.225ZM13.1407 3.73678C15.8397 3.73678 18.0564 5.97389 18.0564 8.74728H19.4564C19.4564 5.22288 16.6349 2.33678 13.1407 2.33678V3.73678ZM18.0564 8.74728C18.0564 11.5207 15.8397 13.7578 13.1407 13.7578V15.1578C16.6349 15.1578 19.4564 12.2717 19.4564 8.74728H18.0564Z" fill="white" mask="url(#path-1-outside-1_232_400)"/>
</svg>
