<svg width="59" height="132" viewBox="0 0 59 132" fill="none" xmlns="http://www.w3.org/2000/svg">
<path fill-rule="evenodd" clip-rule="evenodd" d="M41.7598 28.357L19.6268 96.5052L1.76282 112.418L6.59183 123.851L10.2007 117.8L14.4201 130.301L13.8098 127.458L14.3814 113.584L21.23 101.519L48.5959 35.0748L41.7598 28.357Z" fill="#3F3F3F" stroke="black" stroke-linecap="round" stroke-linejoin="round"/>
<path fill-rule="evenodd" clip-rule="evenodd" d="M42.6504 3.04633L41.1213 28.4431L48.7044 35.5739L52.788 3.58629L42.6504 3.04633Z" fill="black" stroke="black" stroke-width="0.75" stroke-linecap="round" stroke-linejoin="round"/>
<path fill-rule="evenodd" clip-rule="evenodd" d="M43.7712 25.9437L44.0035 29.5949L47.5853 32.7372L46.9235 29.8776L43.7712 25.9437Z" fill="black" stroke="#3F3F3F" stroke-width="0.75" stroke-linecap="round" stroke-linejoin="round"/>
<path d="M35.0042 6.03133L35.0451 13.9279C35.0566 16.1543 36.9745 17.9637 39.3289 17.9693L52.7935 18.0014C55.1479 18.007 57.0472 16.2066 57.0357 13.9802L56.9948 6.08366C56.9833 3.85724 55.0653 2.04783 52.7109 2.04222L39.2464 2.01018C36.892 2.00457 34.9927 3.8049 35.0042 6.03133Z" fill="white" stroke="black" stroke-width="3.76785"/>
</svg>
