<svg width="150" height="150" viewBox="0 0 150 150" fill="none" xmlns="http://www.w3.org/2000/svg">
<mask id="mask0_378_282" style="mask-type:luminance" maskUnits="userSpaceOnUse" x="5" y="5" width="140" height="140">
<path d="M5.55554 5.55554H144.444V144.444H5.55554V5.55554Z" fill="white"/>
</mask>
<g mask="url(#mask0_378_282)">
<g filter="url(#filter0_i_378_282)">
<path d="M75 144.444C93.4178 144.444 111.081 137.128 124.105 124.105C137.128 111.081 144.444 93.4178 144.444 75C144.444 56.5822 137.128 38.9187 124.105 25.8953C111.081 12.872 93.4178 5.55554 75 5.55554C56.5822 5.55554 38.9187 12.872 25.8953 25.8953C12.872 38.9187 5.55554 56.5822 5.55554 75C5.55554 93.4178 12.872 111.081 25.8953 124.105C38.9187 137.128 56.5822 144.444 75 144.444Z" fill="#DB5192"/>
</g>
<path d="M75 138.889C91.9444 138.889 108.195 132.158 120.176 120.176C132.158 108.195 138.889 91.9444 138.889 75C138.889 58.0556 132.158 41.8052 120.176 29.8237C108.195 17.8422 91.9444 11.1111 75 11.1111C58.0556 11.1111 41.8052 17.8422 29.8237 29.8237C17.8422 41.8052 11.1111 58.0556 11.1111 75C11.1111 91.9444 17.8422 108.195 29.8237 120.176C41.8052 132.158 58.0556 138.889 75 138.889Z" fill="#FFCC57"/>
<path d="M75.0001 137.5C91.5761 137.5 107.473 130.915 119.194 119.194C130.915 107.473 137.5 91.5761 137.5 75.0001C137.5 58.424 130.915 42.5269 119.194 30.8059C107.473 19.0849 91.5761 12.5001 75.0001 12.5001C58.424 12.5001 42.5269 19.0849 30.8059 30.8059C19.0849 42.5269 12.5001 58.424 12.5001 75.0001C12.5001 91.5761 19.0849 107.473 30.8059 119.194C42.5269 130.915 58.424 137.5 75.0001 137.5Z" stroke="black" stroke-opacity="0.2"/>
<path d="M75 130.556C89.7343 130.556 103.865 124.702 114.284 114.284C124.702 103.865 130.556 89.7343 130.556 75C130.556 60.2658 124.702 46.135 114.284 35.7163C103.865 25.2976 89.7343 19.4445 75 19.4445C60.2658 19.4445 46.135 25.2976 35.7163 35.7163C25.2976 46.135 19.4445 60.2658 19.4445 75C19.4445 89.7343 25.2976 103.865 35.7163 114.284C46.135 124.702 60.2658 130.556 75 130.556Z" fill="#DB5192"/>
<path d="M75 129.167C89.3659 129.167 103.143 123.46 113.302 113.302C123.46 103.143 129.167 89.3659 129.167 75C129.167 60.6341 123.46 46.8566 113.302 36.6984C103.143 26.5401 89.3659 20.8333 75 20.8333C60.6341 20.8333 46.8566 26.5401 36.6984 36.6984C26.5401 46.8566 20.8333 60.6341 20.8333 75C20.8333 89.3659 26.5401 103.143 36.6984 113.302C46.8566 123.46 60.6341 129.167 75 129.167Z" stroke="black" stroke-opacity="0.2"/>
<path d="M75.0001 122.222C87.5242 122.222 99.5353 117.247 108.391 108.391C117.247 99.5353 122.222 87.5242 122.222 75.0001C122.222 62.4759 117.247 50.4648 108.391 41.6089C99.5353 32.753 87.5242 27.7778 75.0001 27.7778C62.4759 27.7778 50.4648 32.753 41.6089 41.6089C32.753 50.4648 27.7778 62.4759 27.7778 75.0001C27.7778 87.5242 32.753 99.5353 41.6089 108.391C50.4648 117.247 62.4759 122.222 75.0001 122.222Z" fill="#FFCC57"/>
<path d="M75 120.833C87.1558 120.833 98.8137 116.005 107.409 107.409C116.005 98.8137 120.833 87.1558 120.833 75C120.833 62.8443 116.005 51.1864 107.409 42.591C98.8137 33.9955 87.1558 29.1667 75 29.1667C62.8443 29.1667 51.1864 33.9955 42.591 42.591C33.9955 51.1864 29.1667 62.8443 29.1667 75C29.1667 87.1558 33.9955 98.8137 42.591 107.409C51.1864 116.005 62.8443 120.833 75 120.833Z" stroke="black" stroke-opacity="0.2"/>
<path d="M75 113.889C85.314 113.889 95.2056 109.792 102.499 102.499C109.792 95.2056 113.889 85.314 113.889 75C113.889 64.6861 109.792 54.7945 102.499 47.5014C95.2056 40.2084 85.314 36.1111 75 36.1111C64.6861 36.1111 54.7945 40.2084 47.5014 47.5014C40.2084 54.7945 36.1111 64.6861 36.1111 75C36.1111 85.314 40.2084 95.2056 47.5014 102.499C54.7945 109.792 64.6861 113.889 75 113.889Z" fill="white" fill-opacity="0.4"/>
<path d="M75 112.5C79.9246 112.5 84.8009 111.53 89.3506 109.645C93.9003 107.761 98.0343 104.999 101.517 101.517C104.999 98.0343 107.761 93.9003 109.645 89.3506C111.53 84.8009 112.5 79.9246 112.5 75C112.5 70.0754 111.53 65.1991 109.645 60.6494C107.761 56.0997 104.999 51.9657 101.517 48.4835C98.0343 45.0013 93.9003 42.2391 89.3506 40.3545C84.8009 38.47 79.9246 37.5 75 37.5C65.0544 37.5 55.5161 41.4509 48.4835 48.4835C41.4509 55.5161 37.5 65.0544 37.5 75C37.5 84.9456 41.4509 94.4839 48.4835 101.517C55.5161 108.549 65.0544 112.5 75 112.5Z" stroke="black" stroke-opacity="0.2"/>
<path d="M75.0001 106.945C83.4722 106.945 91.5974 103.579 97.5882 97.5882C103.579 91.5974 106.945 83.4722 106.945 75.0001C106.945 66.5279 103.579 58.4027 97.5882 52.4119C91.5974 46.4212 83.4722 43.0556 75.0001 43.0556C66.5279 43.0556 58.4027 46.4212 52.4119 52.4119C46.4212 58.4027 43.0556 66.5279 43.0556 75.0001C43.0556 83.4722 46.4212 91.5974 52.4119 97.5882C58.4027 103.579 66.5279 106.945 75.0001 106.945Z" fill="black" fill-opacity="0.5" stroke="black"/>
<path d="M75 101.389C78.4654 101.389 81.8969 100.706 85.0986 99.3801C88.3002 98.054 91.2093 96.1102 93.6597 93.6597C96.1102 91.2093 98.054 88.3002 99.3801 85.0986C100.706 81.8969 101.389 78.4654 101.389 75C101.389 71.5345 100.706 68.103 99.3801 64.9014C98.054 61.6997 96.1102 58.7906 93.6597 56.3402C91.2093 53.8898 88.3002 51.946 85.0986 50.6198C81.8969 49.2937 78.4654 48.6111 75 48.6111C68.0012 48.6111 61.2891 51.3913 56.3402 56.3402C51.3913 61.2891 48.6111 68.0012 48.6111 75C48.6111 81.9987 51.3913 88.7109 56.3402 93.6597C61.2891 98.6086 68.0012 101.389 75 101.389Z" fill="black" fill-opacity="0.6" stroke="black"/>
<path d="M75 95.8334C77.7359 95.8334 80.445 95.2945 82.9726 94.2475C85.5002 93.2005 87.7969 91.666 89.7314 89.7314C91.666 87.7969 93.2005 85.5002 94.2475 82.9726C95.2945 80.445 95.8334 77.7359 95.8334 75C95.8334 72.2641 95.2945 69.5551 94.2475 67.0274C93.2005 64.4998 91.666 62.2032 89.7314 60.2686C87.7969 58.3341 85.5002 56.7995 82.9726 55.7525C80.445 54.7056 77.7359 54.1667 75 54.1667C69.4747 54.1667 64.1756 56.3616 60.2686 60.2686C56.3616 64.1756 54.1667 69.4747 54.1667 75C54.1667 80.5254 56.3616 85.8244 60.2686 89.7314C64.1756 93.6384 69.4747 95.8334 75 95.8334Z" fill="black" fill-opacity="0.5" stroke="black"/>
<path d="M75 90.2778C79.0519 90.2778 82.9379 88.6682 85.803 85.803C88.6682 82.9379 90.2778 79.0519 90.2778 75C90.2778 70.9481 88.6682 67.0621 85.803 64.197C82.9379 61.3318 79.0519 59.7222 75 59.7222C70.9481 59.7222 67.0621 61.3318 64.197 64.197C61.3318 67.0621 59.7222 70.9481 59.7222 75C59.7222 79.0519 61.3318 82.9379 64.197 85.803C67.0621 88.6682 70.9481 90.2778 75 90.2778Z" fill="black" fill-opacity="0.4" stroke="black"/>
<path d="M75 86.1111C77.9469 86.1111 80.773 84.9405 82.8568 82.8568C84.9405 80.773 86.1111 77.9469 86.1111 75C86.1111 72.0532 84.9405 69.227 82.8568 67.1433C80.773 65.0595 77.9469 63.8889 75 63.8889C72.0532 63.8889 69.227 65.0595 67.1433 67.1433C65.0595 69.227 63.8889 72.0532 63.8889 75C63.8889 77.9469 65.0595 80.773 67.1433 82.8568C69.227 84.9405 72.0532 86.1111 75 86.1111Z" fill="black"/>
<path d="M75.0001 84.7223C77.5786 84.7223 80.0514 83.698 81.8747 81.8747C83.698 80.0514 84.7223 77.5786 84.7223 75.0001C84.7223 72.4216 83.698 69.9487 81.8747 68.1254C80.0514 66.3021 77.5786 65.2778 75.0001 65.2778C72.4216 65.2778 69.9487 66.3021 68.1254 68.1254C66.3021 69.9487 65.2778 72.4216 65.2778 75.0001C65.2778 77.5786 66.3021 80.0514 68.1254 81.8747C69.9487 83.698 72.4216 84.7223 75.0001 84.7223Z" stroke="black" stroke-opacity="0.2"/>
<g filter="url(#filter1_f_378_282)">
<path d="M75 77.7778C75.7367 77.7778 76.4433 77.4851 76.9642 76.9642C77.4851 76.4433 77.7778 75.7367 77.7778 75C77.7778 74.2633 77.4851 73.5568 76.9642 73.0358C76.4433 72.5149 75.7367 72.2222 75 72.2222C74.2633 72.2222 73.5568 72.5149 73.0358 73.0358C72.5149 73.5568 72.2222 74.2633 72.2222 75C72.2222 75.7367 72.5149 76.4433 73.0358 76.9642C73.5568 77.4851 74.2633 77.7778 75 77.7778Z" fill="white"/>
</g>
</g>
<g style="mix-blend-mode:multiply">
<path d="M48.0892 10.9817C56.4962 7.44773 65.517 5.60424 74.6364 5.55649C83.7559 5.50875 92.7954 7.25768 101.239 10.7034L87.5947 44.1376C83.5418 42.4837 79.2028 41.6442 74.8255 41.6671C70.4481 41.69 66.1182 42.5749 62.0828 44.2712L48.0892 10.9817Z" fill="white"/>
</g>
<g style="mix-blend-mode:multiply">
<path d="M139.018 48.0892C146.155 65.0679 146.256 84.1864 139.297 101.239L105.862 87.5947C109.203 79.4095 109.155 70.2326 105.729 62.0828L139.018 48.0892Z" fill="white"/>
</g>
<g style="mix-blend-mode:multiply">
<path d="M101.911 139.018C84.9321 146.155 65.8136 146.256 48.7611 139.297L62.4053 105.862C70.5905 109.203 79.7674 109.155 87.9172 105.729L101.911 139.018Z" fill="white"/>
</g>
<g style="mix-blend-mode:multiply">
<path d="M10.9817 101.911C3.84452 84.9321 3.74442 65.8136 10.7034 48.7611L44.1376 62.4053C40.7973 70.5905 40.8454 79.7674 44.2712 87.9172L10.9817 101.911Z" fill="white"/>
</g>
<g style="mix-blend-mode:difference">
<path d="M139.297 101.239C132.338 118.291 118.89 131.881 101.911 139.018L87.9172 105.729C96.067 102.303 102.522 95.7799 105.862 87.5947L139.297 101.239Z" fill="white"/>
</g>
<g style="mix-blend-mode:difference">
<path d="M48.761 139.297C31.7085 132.338 18.1189 118.89 10.9817 101.911L44.2712 87.9172C47.6971 96.067 54.2201 102.522 62.4053 105.862L48.761 139.297Z" fill="white"/>
</g>
<g style="mix-blend-mode:difference">
<path d="M10.7034 48.761C14.1492 40.3175 19.2243 32.6353 25.6389 26.1531C32.0536 19.6709 39.6822 14.5157 48.0892 10.9817L62.0828 44.2712C58.0474 45.9675 54.3857 48.442 51.3067 51.5535C48.2276 54.6649 45.7916 58.3524 44.1376 62.4053L10.7034 48.761Z" fill="white"/>
</g>
<g style="mix-blend-mode:difference">
<path d="M101.239 10.7034C118.291 17.6624 131.881 31.1105 139.018 48.0892L105.729 62.0828C102.303 53.933 95.7799 47.478 87.5947 44.1376L101.239 10.7034Z" fill="white"/>
</g>
<path d="M150 75C150 116.421 116.421 150 75 150C33.5786 150 0 116.421 0 75C0 33.5786 33.5786 0 75 0C116.421 0 150 33.5786 150 75ZM5.54531 75C5.54531 113.359 36.6412 144.455 75 144.455C113.359 144.455 144.455 113.359 144.455 75C144.455 36.6412 113.359 5.54531 75 5.54531C36.6412 5.54531 5.54531 36.6412 5.54531 75Z" fill="black"/>
<circle cx="8.33332" cy="102.778" r="2.77778" fill="#D9D9D9"/>
<circle cx="47.2222" cy="141.667" r="2.77778" fill="#D9D9D9"/>
<circle cx="102.778" cy="141.667" r="2.77778" fill="#D9D9D9"/>
<circle cx="141.667" cy="102.778" r="2.77778" fill="#D9D9D9"/>
<circle cx="141.667" cy="47.2222" r="2.77778" fill="#D9D9D9"/>
<circle cx="102.778" cy="8.33332" r="2.77778" fill="#D9D9D9"/>
<circle cx="47.2222" cy="8.33332" r="2.77778" fill="#D9D9D9"/>
<circle cx="8.33332" cy="47.2222" r="2.77778" fill="#D9D9D9"/>
<defs>
<filter id="filter0_i_378_282" x="5.55554" y="5.55554" width="138.889" height="142.889" filterUnits="userSpaceOnUse" color-interpolation-filters="sRGB">
<feFlood flood-opacity="0" result="BackgroundImageFix"/>
<feBlend mode="normal" in="SourceGraphic" in2="BackgroundImageFix" result="shape"/>
<feColorMatrix in="SourceAlpha" type="matrix" values="0 0 0 0 0 0 0 0 0 0 0 0 0 0 0 0 0 0 127 0" result="hardAlpha"/>
<feOffset dy="4"/>
<feGaussianBlur stdDeviation="2"/>
<feComposite in2="hardAlpha" operator="arithmetic" k2="-1" k3="1"/>
<feColorMatrix type="matrix" values="0 0 0 0 0 0 0 0 0 0 0 0 0 0 0 0 0 0 0.25 0"/>
<feBlend mode="normal" in2="shape" result="effect1_innerShadow_378_282"/>
</filter>
<filter id="filter1_f_378_282" x="68.2222" y="68.2222" width="13.5555" height="13.5555" filterUnits="userSpaceOnUse" color-interpolation-filters="sRGB">
<feFlood flood-opacity="0" result="BackgroundImageFix"/>
<feBlend mode="normal" in="SourceGraphic" in2="BackgroundImageFix" result="shape"/>
<feGaussianBlur stdDeviation="2" result="effect1_foregroundBlur_378_282"/>
</filter>
</defs>
</svg>
