<svg width="700" height="184" viewBox="0 0 700 184" fill="none" xmlns="http://www.w3.org/2000/svg">
<mask id="path-1-outside-1_388_129" maskUnits="userSpaceOnUse" x="0" y="28" width="700" height="127" fill="black">
<rect fill="white" y="28" width="700" height="127"/>
<path d="M56.4 105.384V86.952H102.864C103.461 94.2907 102.821 101.203 100.944 107.688C99.0667 114.173 96.1227 119.848 92.112 124.712C88.1013 129.576 83.0667 133.416 77.008 136.232C70.9493 138.963 63.9947 140.328 56.144 140.328C48.8907 140.328 42.192 139.176 36.048 136.872C29.9893 134.568 24.6987 131.325 20.176 127.144C15.7387 122.877 12.2827 117.8 9.808 111.912C7.33333 105.939 6.096 99.368 6.096 92.2C6.096 85.032 7.376 78.5467 9.936 72.744C12.496 66.9413 16.08 61.992 20.688 57.896C25.296 53.7147 30.7147 50.5573 36.944 48.424C43.1733 46.2053 49.9147 45.096 57.168 45.096C63.7387 45.096 69.584 46.0773 74.704 48.04C79.9093 49.9173 84.4747 52.52 88.4 55.848C92.3253 59.0907 95.7387 62.8027 98.64 66.984L75.984 77.864C74.192 74.6213 71.8027 71.8907 68.816 69.672C65.8293 67.4533 61.9467 66.344 57.168 66.344C52.6453 66.344 48.464 67.3253 44.624 69.288C40.784 71.2507 37.712 74.152 35.408 77.992C33.1893 81.832 32.08 86.568 32.08 92.2C32.08 97.7467 33.1467 102.568 35.28 106.664C37.4133 110.675 40.3573 113.747 44.112 115.88C47.8667 118.013 52.2187 119.08 57.168 119.08C60.1547 119.08 62.8 118.781 65.104 118.184C67.408 117.501 69.4133 116.563 71.12 115.368C72.8267 114.088 74.2773 112.595 75.472 110.888C76.752 109.181 77.776 107.347 78.544 105.384H56.4ZM128.835 122.536L129.603 104.232H175.555L176.195 122.536H128.835ZM152.259 84.136L140.483 111.016L142.019 116.52L131.651 137H103.491L152.259 41.384L201.155 137H172.995L162.755 117.416L164.163 111.016L152.259 84.136ZM269.998 47.4H293.806V141.48L233.774 91.432V137H209.966V42.92L269.998 92.968V47.4ZM327.96 122.536L328.728 104.232H374.68L375.32 122.536H327.96ZM351.384 84.136L339.608 111.016L341.144 116.52L330.776 137H302.616L351.384 41.384L400.28 137H372.12L361.88 117.416L363.288 111.016L351.384 84.136ZM409.091 47.4H434.819V137H409.091V47.4ZM442.627 137H425.987V115.24H441.603C444.59 115.24 447.491 114.941 450.307 114.344C453.208 113.661 455.811 112.509 458.115 110.888C460.419 109.181 462.254 106.835 463.619 103.848C465.07 100.776 465.795 96.8933 465.795 92.2C465.795 87.5067 465.07 83.6667 463.619 80.68C462.254 77.608 460.419 75.2613 458.115 73.64C455.811 71.9333 453.208 70.7813 450.307 70.184C447.491 69.5013 444.59 69.16 441.603 69.16H425.987V47.4H442.627C452.782 47.4 461.486 49.2347 468.739 52.904C476.078 56.488 481.71 61.608 485.635 68.264C489.646 74.92 491.651 82.8987 491.651 92.2C491.651 101.416 489.646 109.395 485.635 116.136C481.71 122.792 476.078 127.955 468.739 131.624C461.486 135.208 452.782 137 442.627 137ZM526.086 92.2C526.086 96.9787 527.025 101.245 528.902 105C530.779 108.669 533.425 111.571 536.838 113.704C540.251 115.752 544.262 116.776 548.87 116.776C553.563 116.776 557.574 115.752 560.902 113.704C564.315 111.571 566.961 108.669 568.838 105C570.715 101.245 571.654 96.9787 571.654 92.2C571.654 87.336 570.758 83.0693 568.966 79.4C567.174 75.7307 564.571 72.872 561.158 70.824C557.83 68.6907 553.734 67.624 548.87 67.624C544.262 67.624 540.251 68.6907 536.838 70.824C533.425 72.872 530.779 75.7307 528.902 79.4C527.025 83.0693 526.086 87.336 526.086 92.2ZM499.846 92.2C499.846 85.1173 501.083 78.7173 503.558 73C506.118 67.1973 509.617 62.248 514.054 58.152C518.491 53.9707 523.654 50.7707 529.542 48.552C535.515 46.248 541.958 45.096 548.87 45.096C555.953 45.096 562.438 46.248 568.326 48.552C574.299 50.7707 579.505 53.9707 583.942 58.152C588.379 62.248 591.793 67.1973 594.182 73C596.657 78.7173 597.894 85.1173 597.894 92.2C597.894 99.1973 596.699 105.64 594.31 111.528C591.921 117.416 588.55 122.536 584.198 126.888C579.846 131.155 574.641 134.483 568.582 136.872C562.609 139.176 556.038 140.328 548.87 140.328C541.702 140.328 535.131 139.176 529.158 136.872C523.185 134.483 517.979 131.155 513.542 126.888C509.19 122.536 505.819 117.416 503.43 111.528C501.041 105.64 499.846 99.1973 499.846 92.2ZM635.536 97.448H661.008L687.888 137H658.96L635.536 97.448ZM611.216 47.4H636.048V137H611.216V47.4ZM627.088 68.392V47.4H646.416C654.608 47.4 661.349 48.68 666.64 51.24C672.016 53.8 675.984 57.3413 678.544 61.864C681.189 66.3013 682.512 71.464 682.512 77.352C682.512 83.1547 681.189 88.36 678.544 92.968C675.984 97.4907 672.016 101.032 666.64 103.592C661.349 106.067 654.608 107.304 646.416 107.304H627.088V88.488H644.368C647.013 88.488 649.232 88.104 651.024 87.336C652.816 86.568 654.181 85.416 655.12 83.88C656.144 82.344 656.656 80.5093 656.656 78.376C656.656 76.2427 656.144 74.4507 655.12 73C654.181 71.464 652.816 70.312 651.024 69.544C649.232 68.776 647.013 68.392 644.368 68.392H627.088Z"/>
</mask>
<path d="M56.4 105.384V86.952H102.864C103.461 94.2907 102.821 101.203 100.944 107.688C99.0667 114.173 96.1227 119.848 92.112 124.712C88.1013 129.576 83.0667 133.416 77.008 136.232C70.9493 138.963 63.9947 140.328 56.144 140.328C48.8907 140.328 42.192 139.176 36.048 136.872C29.9893 134.568 24.6987 131.325 20.176 127.144C15.7387 122.877 12.2827 117.8 9.808 111.912C7.33333 105.939 6.096 99.368 6.096 92.2C6.096 85.032 7.376 78.5467 9.936 72.744C12.496 66.9413 16.08 61.992 20.688 57.896C25.296 53.7147 30.7147 50.5573 36.944 48.424C43.1733 46.2053 49.9147 45.096 57.168 45.096C63.7387 45.096 69.584 46.0773 74.704 48.04C79.9093 49.9173 84.4747 52.52 88.4 55.848C92.3253 59.0907 95.7387 62.8027 98.64 66.984L75.984 77.864C74.192 74.6213 71.8027 71.8907 68.816 69.672C65.8293 67.4533 61.9467 66.344 57.168 66.344C52.6453 66.344 48.464 67.3253 44.624 69.288C40.784 71.2507 37.712 74.152 35.408 77.992C33.1893 81.832 32.08 86.568 32.08 92.2C32.08 97.7467 33.1467 102.568 35.28 106.664C37.4133 110.675 40.3573 113.747 44.112 115.88C47.8667 118.013 52.2187 119.08 57.168 119.08C60.1547 119.08 62.8 118.781 65.104 118.184C67.408 117.501 69.4133 116.563 71.12 115.368C72.8267 114.088 74.2773 112.595 75.472 110.888C76.752 109.181 77.776 107.347 78.544 105.384H56.4ZM128.835 122.536L129.603 104.232H175.555L176.195 122.536H128.835ZM152.259 84.136L140.483 111.016L142.019 116.52L131.651 137H103.491L152.259 41.384L201.155 137H172.995L162.755 117.416L164.163 111.016L152.259 84.136ZM269.998 47.4H293.806V141.48L233.774 91.432V137H209.966V42.92L269.998 92.968V47.4ZM327.96 122.536L328.728 104.232H374.68L375.32 122.536H327.96ZM351.384 84.136L339.608 111.016L341.144 116.52L330.776 137H302.616L351.384 41.384L400.28 137H372.12L361.88 117.416L363.288 111.016L351.384 84.136ZM409.091 47.4H434.819V137H409.091V47.4ZM442.627 137H425.987V115.24H441.603C444.59 115.24 447.491 114.941 450.307 114.344C453.208 113.661 455.811 112.509 458.115 110.888C460.419 109.181 462.254 106.835 463.619 103.848C465.07 100.776 465.795 96.8933 465.795 92.2C465.795 87.5067 465.07 83.6667 463.619 80.68C462.254 77.608 460.419 75.2613 458.115 73.64C455.811 71.9333 453.208 70.7813 450.307 70.184C447.491 69.5013 444.59 69.16 441.603 69.16H425.987V47.4H442.627C452.782 47.4 461.486 49.2347 468.739 52.904C476.078 56.488 481.71 61.608 485.635 68.264C489.646 74.92 491.651 82.8987 491.651 92.2C491.651 101.416 489.646 109.395 485.635 116.136C481.71 122.792 476.078 127.955 468.739 131.624C461.486 135.208 452.782 137 442.627 137ZM526.086 92.2C526.086 96.9787 527.025 101.245 528.902 105C530.779 108.669 533.425 111.571 536.838 113.704C540.251 115.752 544.262 116.776 548.87 116.776C553.563 116.776 557.574 115.752 560.902 113.704C564.315 111.571 566.961 108.669 568.838 105C570.715 101.245 571.654 96.9787 571.654 92.2C571.654 87.336 570.758 83.0693 568.966 79.4C567.174 75.7307 564.571 72.872 561.158 70.824C557.83 68.6907 553.734 67.624 548.87 67.624C544.262 67.624 540.251 68.6907 536.838 70.824C533.425 72.872 530.779 75.7307 528.902 79.4C527.025 83.0693 526.086 87.336 526.086 92.2ZM499.846 92.2C499.846 85.1173 501.083 78.7173 503.558 73C506.118 67.1973 509.617 62.248 514.054 58.152C518.491 53.9707 523.654 50.7707 529.542 48.552C535.515 46.248 541.958 45.096 548.87 45.096C555.953 45.096 562.438 46.248 568.326 48.552C574.299 50.7707 579.505 53.9707 583.942 58.152C588.379 62.248 591.793 67.1973 594.182 73C596.657 78.7173 597.894 85.1173 597.894 92.2C597.894 99.1973 596.699 105.64 594.31 111.528C591.921 117.416 588.55 122.536 584.198 126.888C579.846 131.155 574.641 134.483 568.582 136.872C562.609 139.176 556.038 140.328 548.87 140.328C541.702 140.328 535.131 139.176 529.158 136.872C523.185 134.483 517.979 131.155 513.542 126.888C509.19 122.536 505.819 117.416 503.43 111.528C501.041 105.64 499.846 99.1973 499.846 92.2ZM635.536 97.448H661.008L687.888 137H658.96L635.536 97.448ZM611.216 47.4H636.048V137H611.216V47.4ZM627.088 68.392V47.4H646.416C654.608 47.4 661.349 48.68 666.64 51.24C672.016 53.8 675.984 57.3413 678.544 61.864C681.189 66.3013 682.512 71.464 682.512 77.352C682.512 83.1547 681.189 88.36 678.544 92.968C675.984 97.4907 672.016 101.032 666.64 103.592C661.349 106.067 654.608 107.304 646.416 107.304H627.088V88.488H644.368C647.013 88.488 649.232 88.104 651.024 87.336C652.816 86.568 654.181 85.416 655.12 83.88C656.144 82.344 656.656 80.5093 656.656 78.376C656.656 76.2427 656.144 74.4507 655.12 73C654.181 71.464 652.816 70.312 651.024 69.544C649.232 68.776 647.013 68.392 644.368 68.392H627.088Z" fill="#FFCC57"/>
<path d="M56.4 105.384H50.4V111.384H56.4V105.384ZM56.4 86.952V80.952H50.4V86.952H56.4ZM102.864 86.952L108.844 86.4652L108.395 80.952H102.864V86.952ZM100.944 107.688L106.707 109.356L106.707 109.356L100.944 107.688ZM92.112 124.712L96.7412 128.529L96.7412 128.529L92.112 124.712ZM77.008 136.232L79.4734 141.702L79.5052 141.688L79.5369 141.673L77.008 136.232ZM36.048 136.872L33.9153 142.48L33.9283 142.485L33.9413 142.49L36.048 136.872ZM20.176 127.144L16.0173 131.469L16.0597 131.51L16.1029 131.55L20.176 127.144ZM9.808 111.912L4.26486 114.208L4.27074 114.223L4.27668 114.237L9.808 111.912ZM9.936 72.744L4.44649 70.3222L4.44649 70.3222L9.936 72.744ZM20.688 57.896L24.6742 62.3805L24.6972 62.36L24.7199 62.3394L20.688 57.896ZM36.944 48.424L38.888 54.1004L38.9226 54.0885L38.9571 54.0762L36.944 48.424ZM74.704 48.04L72.5564 53.6425L72.6122 53.6639L72.6684 53.6841L74.704 48.04ZM88.4 55.848L84.5199 60.4245L84.5491 60.4493L84.5787 60.4738L88.4 55.848ZM98.64 66.984L101.237 72.3927L107.582 69.3459L103.57 63.5635L98.64 66.984ZM75.984 77.864L70.7326 80.7661L73.4734 85.7257L78.5814 83.2727L75.984 77.864ZM68.816 69.672L65.2381 74.4885L65.2381 74.4885L68.816 69.672ZM44.624 69.288L41.8933 63.9454L41.8933 63.9454L44.624 69.288ZM35.408 77.992L30.263 74.905L30.2376 74.9475L30.2128 74.9903L35.408 77.992ZM35.28 106.664L29.9585 109.436L29.9705 109.459L29.9828 109.482L35.28 106.664ZM65.104 118.184L66.6098 123.992L66.7096 123.966L66.8085 123.937L65.104 118.184ZM71.12 115.368L74.5608 120.283L74.6413 120.227L74.72 120.168L71.12 115.368ZM75.472 110.888L70.672 107.288L70.613 107.367L70.5566 107.447L75.472 110.888ZM78.544 105.384L84.1315 107.57L87.3348 99.384H78.544V105.384ZM56.4 105.384H62.4V86.952H56.4H50.4V105.384H56.4ZM56.4 86.952V92.952H102.864V86.952V80.952H56.4V86.952ZM102.864 86.952L96.8838 87.4388C97.4274 94.1177 96.8379 100.294 95.1806 106.02L100.944 107.688L106.707 109.356C108.805 102.111 109.495 94.4636 108.844 86.4652L102.864 86.952ZM100.944 107.688L95.1806 106.02C93.5145 111.775 90.9366 116.706 87.4828 120.895L92.112 124.712L96.7412 128.529C101.309 122.99 104.619 116.571 106.707 109.356L100.944 107.688ZM92.112 124.712L87.4828 120.895C84.076 125.026 79.7748 128.33 74.4791 130.791L77.008 136.232L79.5369 141.673C86.3585 138.502 92.1267 134.126 96.7412 128.529L92.112 124.712ZM77.008 136.232L74.5426 130.762C69.3867 133.086 63.2969 134.328 56.144 134.328V140.328V146.328C64.6925 146.328 72.512 144.84 79.4734 141.702L77.008 136.232ZM56.144 140.328V134.328C49.5345 134.328 43.5577 133.28 38.1547 131.254L36.048 136.872L33.9413 142.49C40.8263 145.072 48.2468 146.328 56.144 146.328V140.328ZM36.048 136.872L38.1807 131.264C32.8017 129.218 28.1787 126.371 24.2491 122.738L20.176 127.144L16.1029 131.55C21.2186 136.279 27.177 139.918 33.9153 142.48L36.048 136.872ZM20.176 127.144L24.3347 122.819C20.5085 119.14 17.5095 114.751 15.3393 109.587L9.808 111.912L4.27668 114.237C7.05579 120.849 10.9689 126.615 16.0173 131.469L20.176 127.144ZM9.808 111.912L15.3511 109.616C13.2093 104.446 12.096 98.6657 12.096 92.2H6.096H0.0960002C0.0960002 100.07 1.45741 107.432 4.26486 114.208L9.808 111.912ZM6.096 92.2H12.096C12.096 85.7574 13.2433 80.1121 15.4255 75.1658L9.936 72.744L4.44649 70.3222C1.50865 76.9813 0.0960002 84.3065 0.0960002 92.2H6.096ZM9.936 72.744L15.4255 75.1658C17.6484 70.1273 20.7281 65.888 24.6742 62.3805L20.688 57.896L16.7018 53.4115C11.4319 58.0959 7.34362 63.7553 4.44649 70.3222L9.936 72.744ZM20.688 57.896L24.7199 62.3394C28.6883 58.7384 33.3856 55.9847 38.888 54.1004L36.944 48.424L35 42.7476C28.0438 45.1299 21.9037 48.6909 16.6561 53.4526L20.688 57.896ZM36.944 48.424L38.9571 54.0762C44.4806 52.1089 50.5344 51.096 57.168 51.096V45.096V39.096C49.295 39.096 41.8661 40.3017 34.9309 42.7718L36.944 48.424ZM57.168 45.096V51.096C63.1465 51.096 68.243 51.989 72.5564 53.6425L74.704 48.04L76.8516 42.4375C70.925 40.1656 64.3309 39.096 57.168 39.096V45.096ZM74.704 48.04L72.6684 53.6841C77.2511 55.3369 81.1806 57.5934 84.5199 60.4245L88.4 55.848L92.2801 51.2715C87.7687 47.4466 82.5676 44.4978 76.7396 42.3958L74.704 48.04ZM88.4 55.848L84.5787 60.4738C88.0815 63.3674 91.1219 66.6739 93.7105 70.4045L98.64 66.984L103.57 63.5635C100.355 58.9315 96.5692 54.814 92.2213 51.2222L88.4 55.848ZM98.64 66.984L96.0426 61.5753L73.3866 72.4553L75.984 77.864L78.5814 83.2727L101.237 72.3927L98.64 66.984ZM75.984 77.864L81.2355 74.9619C79.027 70.9656 76.0658 67.5832 72.3939 64.8555L68.816 69.672L65.2381 74.4885C67.5395 76.1981 69.357 78.2771 70.7326 80.7661L75.984 77.864ZM68.816 69.672L72.3939 64.8555C68.1117 61.6744 62.8672 60.344 57.168 60.344V66.344V72.344C61.0261 72.344 63.547 73.2322 65.2381 74.4885L68.816 69.672ZM57.168 66.344V60.344C51.7436 60.344 46.6202 61.5294 41.8933 63.9454L44.624 69.288L47.3547 74.6306C50.3078 73.1212 53.5471 72.344 57.168 72.344V66.344ZM44.624 69.288L41.8933 63.9454C37.0137 66.4394 33.1215 70.1409 30.263 74.905L35.408 77.992L40.553 81.079C42.3025 78.1631 44.5543 76.0619 47.3547 74.6306L44.624 69.288ZM35.408 77.992L30.2128 74.9903C27.3427 79.9578 26.08 85.7938 26.08 92.2H32.08H38.08C38.08 87.3422 39.036 83.7062 40.6032 80.9937L35.408 77.992ZM32.08 92.2H26.08C26.08 98.5191 27.2983 104.328 29.9585 109.436L35.28 106.664L40.6015 103.892C38.9951 100.808 38.08 96.9742 38.08 92.2H32.08ZM35.28 106.664L29.9828 109.482C32.6214 114.442 36.3512 118.371 41.1479 121.097L44.112 115.88L47.0761 110.663C44.3635 109.122 42.2052 106.907 40.5772 103.846L35.28 106.664ZM44.112 115.88L41.1479 121.097C45.9311 123.814 51.3334 125.08 57.168 125.08V119.08V113.08C53.1039 113.08 49.8022 112.212 47.0761 110.663L44.112 115.88ZM57.168 119.08V125.08C60.5399 125.08 63.7079 124.744 66.6098 123.992L65.104 118.184L63.5982 112.376C61.8921 112.818 59.7694 113.08 57.168 113.08V119.08ZM65.104 118.184L66.8085 123.937C69.6393 123.098 72.25 121.901 74.5608 120.283L71.12 115.368L67.6792 110.453C66.5767 111.224 65.1767 111.905 63.3995 112.431L65.104 118.184ZM71.12 115.368L74.72 120.168C76.9219 118.517 78.8201 116.568 80.3874 114.329L75.472 110.888L70.5566 107.447C69.7345 108.622 68.7315 109.659 67.52 110.568L71.12 115.368ZM75.472 110.888L80.272 114.488C81.8731 112.353 83.1636 110.044 84.1315 107.57L78.544 105.384L72.9565 103.198C72.3884 104.649 71.6309 106.009 70.672 107.288L75.472 110.888ZM78.544 105.384V99.384H56.4V105.384V111.384H78.544V105.384ZM128.835 122.536L122.84 122.284L122.578 128.536H128.835V122.536ZM129.603 104.232V98.232H123.849L123.608 103.98L129.603 104.232ZM175.555 104.232L181.551 104.022L181.349 98.232H175.555V104.232ZM176.195 122.536V128.536H182.408L182.191 122.326L176.195 122.536ZM152.259 84.136L157.745 81.7064L152.229 69.2515L146.763 81.7283L152.259 84.136ZM140.483 111.016L134.987 108.608L134.129 110.568L134.704 112.629L140.483 111.016ZM142.019 116.52L147.372 119.23L148.424 117.151L147.798 114.907L142.019 116.52ZM131.651 137V143H135.339L137.004 139.71L131.651 137ZM103.491 137L98.1461 134.274L93.6954 143H103.491V137ZM152.259 41.384L157.601 38.6522L152.252 28.1922L146.914 38.6579L152.259 41.384ZM201.155 137V143H210.962L206.497 134.268L201.155 137ZM172.995 137L167.678 139.78L169.362 143H172.995V137ZM162.755 117.416L156.895 116.127L156.426 118.26L157.438 120.196L162.755 117.416ZM164.163 111.016L170.023 112.305L170.445 110.385L169.649 108.586L164.163 111.016ZM128.835 122.536L134.83 122.788L135.598 104.484L129.603 104.232L123.608 103.98L122.84 122.284L128.835 122.536ZM129.603 104.232V110.232H175.555V104.232V98.232H129.603V104.232ZM175.555 104.232L169.559 104.442L170.199 122.746L176.195 122.536L182.191 122.326L181.551 104.022L175.555 104.232ZM176.195 122.536V116.536H128.835V122.536V128.536H176.195V122.536ZM152.259 84.136L146.763 81.7283L134.987 108.608L140.483 111.016L145.979 113.424L157.755 86.5437L152.259 84.136ZM140.483 111.016L134.704 112.629L136.24 118.133L142.019 116.52L147.798 114.907L146.262 109.403L140.483 111.016ZM142.019 116.52L136.666 113.81L126.298 134.29L131.651 137L137.004 139.71L147.372 119.23L142.019 116.52ZM131.651 137V131H103.491V137V143H131.651V137ZM103.491 137L108.836 139.726L157.604 44.1101L152.259 41.384L146.914 38.6579L98.1461 134.274L103.491 137ZM152.259 41.384L146.917 44.1158L195.813 139.732L201.155 137L206.497 134.268L157.601 38.6522L152.259 41.384ZM201.155 137V131H172.995V137V143H201.155V137ZM172.995 137L178.312 134.22L168.072 114.636L162.755 117.416L157.438 120.196L167.678 139.78L172.995 137ZM162.755 117.416L168.615 118.705L170.023 112.305L164.163 111.016L158.303 109.727L156.895 116.127L162.755 117.416ZM164.163 111.016L169.649 108.586L157.745 81.7064L152.259 84.136L146.773 86.5656L158.677 113.446L164.163 111.016ZM269.998 47.4V41.4H263.998V47.4H269.998ZM293.806 47.4H299.806V41.4H293.806V47.4ZM293.806 141.48L289.964 146.089L299.806 154.294V141.48H293.806ZM233.774 91.432L237.616 86.8235L227.774 78.6183V91.432H233.774ZM233.774 137V143H239.774V137H233.774ZM209.966 137H203.966V143H209.966V137ZM209.966 42.92L213.808 38.3115L203.966 30.1063V42.92H209.966ZM269.998 92.968L266.156 97.5765L275.998 105.782V92.968H269.998ZM269.998 47.4V53.4H293.806V47.4V41.4H269.998V47.4ZM293.806 47.4H287.806V141.48H293.806H299.806V47.4H293.806ZM293.806 141.48L297.648 136.871L237.616 86.8235L233.774 91.432L229.932 96.0405L289.964 146.089L293.806 141.48ZM233.774 91.432H227.774V137H233.774H239.774V91.432H233.774ZM233.774 137V131H209.966V137V143H233.774V137ZM209.966 137H215.966V42.92H209.966H203.966V137H209.966ZM209.966 42.92L206.124 47.5285L266.156 97.5765L269.998 92.968L273.84 88.3595L213.808 38.3115L209.966 42.92ZM269.998 92.968H275.998V47.4H269.998H263.998V92.968H269.998ZM327.96 122.536L321.965 122.284L321.703 128.536H327.96V122.536ZM328.728 104.232V98.232H322.974L322.733 103.98L328.728 104.232ZM374.68 104.232L380.676 104.022L380.474 98.232H374.68V104.232ZM375.32 122.536V128.536H381.533L381.316 122.326L375.32 122.536ZM351.384 84.136L356.87 81.7064L351.354 69.2515L345.888 81.7283L351.384 84.136ZM339.608 111.016L334.112 108.608L333.254 110.568L333.829 112.629L339.608 111.016ZM341.144 116.52L346.497 119.23L347.549 117.151L346.923 114.907L341.144 116.52ZM330.776 137V143H334.464L336.129 139.71L330.776 137ZM302.616 137L297.271 134.274L292.82 143H302.616V137ZM351.384 41.384L356.726 38.6522L351.377 28.1922L346.039 38.6579L351.384 41.384ZM400.28 137V143H410.087L405.622 134.268L400.28 137ZM372.12 137L366.803 139.78L368.487 143H372.12V137ZM361.88 117.416L356.02 116.127L355.551 118.26L356.563 120.196L361.88 117.416ZM363.288 111.016L369.148 112.305L369.57 110.385L368.774 108.586L363.288 111.016ZM327.96 122.536L333.955 122.788L334.723 104.484L328.728 104.232L322.733 103.98L321.965 122.284L327.96 122.536ZM328.728 104.232V110.232H374.68V104.232V98.232H328.728V104.232ZM374.68 104.232L368.684 104.442L369.324 122.746L375.32 122.536L381.316 122.326L380.676 104.022L374.68 104.232ZM375.32 122.536V116.536H327.96V122.536V128.536H375.32V122.536ZM351.384 84.136L345.888 81.7283L334.112 108.608L339.608 111.016L345.104 113.424L356.88 86.5437L351.384 84.136ZM339.608 111.016L333.829 112.629L335.365 118.133L341.144 116.52L346.923 114.907L345.387 109.403L339.608 111.016ZM341.144 116.52L335.791 113.81L325.423 134.29L330.776 137L336.129 139.71L346.497 119.23L341.144 116.52ZM330.776 137V131H302.616V137V143H330.776V137ZM302.616 137L307.961 139.726L356.729 44.1101L351.384 41.384L346.039 38.6579L297.271 134.274L302.616 137ZM351.384 41.384L346.042 44.1158L394.938 139.732L400.28 137L405.622 134.268L356.726 38.6522L351.384 41.384ZM400.28 137V131H372.12V137V143H400.28V137ZM372.12 137L377.437 134.22L367.197 114.636L361.88 117.416L356.563 120.196L366.803 139.78L372.12 137ZM361.88 117.416L367.74 118.705L369.148 112.305L363.288 111.016L357.428 109.727L356.02 116.127L361.88 117.416ZM363.288 111.016L368.774 108.586L356.87 81.7064L351.384 84.136L345.898 86.5656L357.802 113.446L363.288 111.016ZM409.091 47.4V41.4H403.091V47.4H409.091ZM434.819 47.4H440.819V41.4H434.819V47.4ZM434.819 137V143H440.819V137H434.819ZM409.091 137H403.091V143H409.091V137ZM425.987 137H419.987V143H425.987V137ZM425.987 115.24V109.24H419.987V115.24H425.987ZM450.307 114.344L451.552 120.213L451.617 120.2L451.681 120.185L450.307 114.344ZM458.115 110.888L461.568 115.795L461.628 115.753L461.686 115.709L458.115 110.888ZM463.619 103.848L458.194 101.286L458.178 101.32L458.162 101.353L463.619 103.848ZM463.619 80.68L458.136 83.1168L458.177 83.2099L458.222 83.3014L463.619 80.68ZM458.115 73.64L454.544 78.4613L454.602 78.5048L454.662 78.5468L458.115 73.64ZM450.307 70.184L448.893 76.0151L448.995 76.0397L449.097 76.0607L450.307 70.184ZM425.987 69.16H419.987V75.16H425.987V69.16ZM425.987 47.4V41.4H419.987V47.4H425.987ZM468.739 52.904L466.031 58.2579L466.068 58.2769L466.106 58.2954L468.739 52.904ZM485.635 68.264L480.467 71.3119L480.481 71.3364L480.496 71.3607L485.635 68.264ZM485.635 116.136L480.479 113.068L480.473 113.078L480.467 113.088L485.635 116.136ZM468.739 131.624L471.397 137.003L471.41 136.997L471.422 136.991L468.739 131.624ZM409.091 47.4V53.4H434.819V47.4V41.4H409.091V47.4ZM434.819 47.4H428.819V137H434.819H440.819V47.4H434.819ZM434.819 137V131H409.091V137V143H434.819V137ZM409.091 137H415.091V47.4H409.091H403.091V137H409.091ZM442.627 137V131H425.987V137V143H442.627V137ZM425.987 137H431.987V115.24H425.987H419.987V137H425.987ZM425.987 115.24V121.24H441.603V115.24V109.24H425.987V115.24ZM441.603 115.24V121.24C444.992 121.24 448.312 120.901 451.552 120.213L450.307 114.344L449.062 108.475C446.67 108.982 444.187 109.24 441.603 109.24V115.24ZM450.307 114.344L451.681 120.185C455.285 119.337 458.601 117.883 461.568 115.795L458.115 110.888L454.662 105.981C453.021 107.136 451.132 107.986 448.933 108.503L450.307 114.344ZM458.115 110.888L461.686 115.709C464.917 113.316 467.351 110.116 469.076 106.343L463.619 103.848L458.162 101.353C457.157 103.553 455.921 105.047 454.544 106.067L458.115 110.888ZM463.619 103.848L469.044 106.41C470.989 102.292 471.795 97.4614 471.795 92.2H465.795H459.795C459.795 96.3253 459.15 99.2599 458.194 101.286L463.619 103.848ZM465.795 92.2H471.795C471.795 86.9494 470.993 82.128 469.016 78.0586L463.619 80.68L458.222 83.3014C459.147 85.2053 459.795 88.0639 459.795 92.2H465.795ZM463.619 80.68L469.102 78.2432C467.381 74.3722 464.918 71.0903 461.568 68.7332L458.115 73.64L454.662 78.5468C455.92 79.4324 457.126 80.8438 458.136 83.1168L463.619 80.68ZM458.115 73.64L461.686 68.8187C458.658 66.5753 455.244 65.0745 451.517 64.3073L450.307 70.184L449.097 76.0607C451.173 76.4881 452.964 77.2914 454.544 78.4613L458.115 73.64ZM450.307 70.184L451.721 64.3529C448.428 63.5546 445.051 63.16 441.603 63.16V69.16V75.16C444.128 75.16 446.554 75.448 448.893 76.0151L450.307 70.184ZM441.603 69.16V63.16H425.987V69.16V75.16H441.603V69.16ZM425.987 69.16H431.987V47.4H425.987H419.987V69.16H425.987ZM425.987 47.4V53.4H442.627V47.4V41.4H425.987V47.4ZM442.627 47.4V53.4C452.07 53.4 459.8 55.106 466.031 58.2579L468.739 52.904L471.447 47.5501C463.171 43.3633 453.493 41.4 442.627 41.4V47.4ZM468.739 52.904L466.106 58.2954C472.452 61.3944 477.173 65.7276 480.467 71.3119L485.635 68.264L490.803 65.2161C486.246 57.4884 479.704 51.5816 471.372 47.5126L468.739 52.904ZM485.635 68.264L480.496 71.3607C483.841 76.9127 485.651 83.7738 485.651 92.2H491.651H497.651C497.651 82.0235 495.45 72.9273 490.774 65.1673L485.635 68.264ZM491.651 92.2H485.651C485.651 100.527 483.847 107.406 480.479 113.068L485.635 116.136L490.791 119.204C495.444 111.383 497.651 102.305 497.651 92.2H491.651ZM485.635 116.136L480.467 113.088C477.166 118.685 472.427 123.072 466.056 126.257L468.739 131.624L471.422 136.991C479.728 132.838 486.253 126.899 490.803 119.184L485.635 116.136ZM468.739 131.624L466.081 126.245C459.838 129.33 452.089 131 442.627 131V137V143C453.474 143 463.134 141.086 471.397 137.003L468.739 131.624ZM528.902 105L523.535 107.683L523.548 107.708L523.561 107.733L528.902 105ZM536.838 113.704L533.658 118.792L533.704 118.821L533.751 118.849L536.838 113.704ZM560.902 113.704L564.047 118.814L564.064 118.803L564.082 118.792L560.902 113.704ZM568.838 105L574.179 107.733L574.192 107.708L574.205 107.683L568.838 105ZM561.158 70.824L557.92 75.8753L557.995 75.9232L558.071 75.969L561.158 70.824ZM536.838 70.824L539.925 75.969L539.972 75.9409L540.018 75.912L536.838 70.824ZM528.902 79.4L523.561 76.6671L523.561 76.6671L528.902 79.4ZM503.558 73L498.068 70.5782L498.06 70.5974L498.052 70.6167L503.558 73ZM514.054 58.152L518.124 62.5608L518.146 62.5399L518.169 62.5187L514.054 58.152ZM529.542 48.552L531.658 54.1666L531.679 54.1584L531.701 54.15L529.542 48.552ZM568.326 48.552L566.14 54.1395L566.188 54.1584L566.237 54.1765L568.326 48.552ZM583.942 58.152L579.827 62.5187L579.85 62.5399L579.872 62.5608L583.942 58.152ZM594.182 73L588.634 75.2845L588.654 75.3341L588.676 75.3833L594.182 73ZM594.31 111.528L588.75 109.272L588.75 109.272L594.31 111.528ZM584.198 126.888L588.398 131.172L588.42 131.152L588.441 131.131L584.198 126.888ZM568.582 136.872L570.741 142.47L570.762 142.462L570.783 142.454L568.582 136.872ZM529.158 136.872L526.93 142.443L526.964 142.457L526.999 142.47L529.158 136.872ZM513.542 126.888L509.299 131.131L509.341 131.172L509.383 131.213L513.542 126.888ZM503.43 111.528L508.99 109.272L508.99 109.272L503.43 111.528ZM526.086 92.2H520.086C520.086 97.7805 521.187 102.987 523.535 107.683L528.902 105L534.269 102.317C532.862 99.5038 532.086 96.1768 532.086 92.2H526.086ZM528.902 105L523.561 107.733C525.92 112.344 529.302 116.069 533.658 118.792L536.838 113.704L540.018 108.616C537.548 107.072 535.639 104.995 534.243 102.267L528.902 105ZM536.838 113.704L533.751 118.849C538.236 121.54 543.349 122.776 548.87 122.776V116.776V110.776C545.175 110.776 542.267 109.964 539.925 108.559L536.838 113.704ZM548.87 116.776V122.776C554.449 122.776 559.598 121.551 564.047 118.814L560.902 113.704L557.757 108.594C555.55 109.953 552.678 110.776 548.87 110.776V116.776ZM560.902 113.704L564.082 118.792C568.438 116.069 571.82 112.344 574.179 107.733L568.838 105L563.497 102.267C562.101 104.995 560.192 107.072 557.722 108.616L560.902 113.704ZM568.838 105L574.205 107.683C576.553 102.987 577.654 97.7805 577.654 92.2H571.654H565.654C565.654 96.1768 564.878 99.5038 563.471 102.317L568.838 105ZM571.654 92.2H577.654C577.654 86.5962 576.619 81.3985 574.357 76.767L568.966 79.4L563.575 82.033C564.897 84.7401 565.654 88.0758 565.654 92.2H571.654ZM568.966 79.4L574.357 76.767C572.07 72.0837 568.68 68.3401 564.245 65.679L561.158 70.824L558.071 75.969C560.463 77.4039 562.278 79.3776 563.575 82.033L568.966 79.4ZM561.158 70.824L564.396 65.7727C559.9 62.8908 554.617 61.624 548.87 61.624V67.624V73.624C552.851 73.624 555.76 74.4905 557.92 75.8753L561.158 70.824ZM548.87 67.624V61.624C543.304 61.624 538.157 62.9242 533.658 65.736L536.838 70.824L540.018 75.912C542.346 74.4571 545.22 73.624 548.87 73.624V67.624ZM536.838 70.824L533.751 65.679C529.34 68.3256 525.93 72.036 523.561 76.6671L528.902 79.4L534.243 82.1329C535.629 79.4253 537.509 77.4184 539.925 75.969L536.838 70.824ZM528.902 79.4L523.561 76.6671C521.179 81.3222 520.086 86.5563 520.086 92.2H526.086H532.086C532.086 88.1157 532.87 84.8165 534.243 82.1329L528.902 79.4ZM499.846 92.2H505.846C505.846 85.8253 506.957 80.252 509.064 75.3833L503.558 73L498.052 70.6167C495.21 77.1827 493.846 84.4094 493.846 92.2H499.846ZM503.558 73L509.048 75.4218C511.292 70.3333 514.321 66.0709 518.124 62.5608L514.054 58.152L509.984 53.7432C504.912 58.4251 500.944 64.0614 498.068 70.5782L503.558 73ZM514.054 58.152L518.169 62.5187C522.01 58.8989 526.488 56.1147 531.658 54.1666L529.542 48.552L527.426 42.9374C520.82 45.4266 514.972 49.0424 509.939 53.7853L514.054 58.152ZM529.542 48.552L531.701 54.15C536.933 52.1322 542.637 51.096 548.87 51.096V45.096V39.096C541.279 39.096 534.098 40.3638 527.383 42.954L529.542 48.552ZM548.87 45.096V51.096C555.294 51.096 561.027 52.1389 566.14 54.1395L568.326 48.552L570.512 42.9645C563.849 40.3571 556.611 39.096 548.87 39.096V45.096ZM568.326 48.552L566.237 54.1765C571.492 56.1285 576 58.9127 579.827 62.5187L583.942 58.152L588.057 53.7853C583.009 49.0286 577.106 45.4128 570.415 42.9274L568.326 48.552ZM583.942 58.152L579.872 62.5608C583.643 66.0413 586.564 70.2566 588.634 75.2845L594.182 73L599.73 70.7155C597.022 64.1381 593.116 58.4546 588.012 53.7432L583.942 58.152ZM594.182 73L588.676 75.3833C590.783 80.252 591.894 85.8253 591.894 92.2H597.894H603.894C603.894 84.4094 602.53 77.1827 599.688 70.6167L594.182 73ZM597.894 92.2H591.894C591.894 98.5024 590.821 104.17 588.75 109.272L594.31 111.528L599.87 113.784C602.578 107.11 603.894 99.8923 603.894 92.2H597.894ZM594.31 111.528L588.75 109.272C586.653 114.441 583.721 118.879 579.955 122.645L584.198 126.888L588.441 131.131C593.379 126.193 597.189 120.391 599.87 113.784L594.31 111.528ZM584.198 126.888L579.998 122.604C576.257 126.271 571.745 129.175 566.381 131.29L568.582 136.872L570.783 142.454C577.536 139.79 583.435 136.039 588.398 131.172L584.198 126.888ZM568.582 136.872L566.423 131.274C561.216 133.282 555.388 134.328 548.87 134.328V140.328V146.328C556.688 146.328 564.002 145.07 570.741 142.47L568.582 136.872ZM548.87 140.328V134.328C542.352 134.328 536.524 133.282 531.317 131.274L529.158 136.872L526.999 142.47C533.738 145.07 541.052 146.328 548.87 146.328V140.328ZM529.158 136.872L531.386 131.301C526.098 129.186 521.556 126.27 517.701 122.563L513.542 126.888L509.383 131.213C514.403 136.039 520.272 139.78 526.93 142.443L529.158 136.872ZM513.542 126.888L517.785 122.645C514.019 118.879 511.087 114.441 508.99 109.272L503.43 111.528L497.87 113.784C500.551 120.391 504.361 126.193 509.299 131.131L513.542 126.888ZM503.43 111.528L508.99 109.272C506.919 104.17 505.846 98.5024 505.846 92.2H499.846H493.846C493.846 99.8923 495.162 107.11 497.87 113.784L503.43 111.528ZM635.536 97.448V91.448H625.009L630.373 100.505L635.536 97.448ZM661.008 97.448L665.97 94.0755L664.185 91.448H661.008V97.448ZM687.888 137V143H699.22L692.85 133.627L687.888 137ZM658.96 137L653.797 140.057L655.54 143H658.96V137ZM611.216 47.4V41.4H605.216V47.4H611.216ZM636.048 47.4H642.048V41.4H636.048V47.4ZM636.048 137V143H642.048V137H636.048ZM611.216 137H605.216V143H611.216V137ZM627.088 68.392H621.088V74.392H627.088V68.392ZM627.088 47.4V41.4H621.088V47.4H627.088ZM666.64 51.24L664.027 56.641L664.043 56.6491L664.06 56.6572L666.64 51.24ZM678.544 61.864L673.322 64.8196L673.356 64.8784L673.39 64.9364L678.544 61.864ZM678.544 92.968L673.34 89.9808L673.331 89.9966L673.322 90.0124L678.544 92.968ZM666.64 103.592L669.182 109.027L669.201 109.018L669.22 109.009L666.64 103.592ZM627.088 107.304H621.088V113.304H627.088V107.304ZM627.088 88.488V82.488H621.088V88.488H627.088ZM655.12 83.88L650.128 80.5518L650.062 80.6503L650 80.7513L655.12 83.88ZM655.12 73L650 76.1287L650.104 76.298L650.218 76.4601L655.12 73ZM635.536 97.448V103.448H661.008V97.448V91.448H635.536V97.448ZM661.008 97.448L656.046 100.821L682.926 140.373L687.888 137L692.85 133.627L665.97 94.0755L661.008 97.448ZM687.888 137V131H658.96V137V143H687.888V137ZM658.96 137L664.123 133.943L640.699 94.3906L635.536 97.448L630.373 100.505L653.797 140.057L658.96 137ZM611.216 47.4V53.4H636.048V47.4V41.4H611.216V47.4ZM636.048 47.4H630.048V137H636.048H642.048V47.4H636.048ZM636.048 137V131H611.216V137V143H636.048V137ZM611.216 137H617.216V47.4H611.216H605.216V137H611.216ZM627.088 68.392H633.088V47.4H627.088H621.088V68.392H627.088ZM627.088 47.4V53.4H646.416V47.4V41.4H627.088V47.4ZM646.416 47.4V53.4C654.038 53.4 659.806 54.5988 664.027 56.641L666.64 51.24L669.253 45.839C662.892 42.7612 655.178 41.4 646.416 41.4V47.4ZM666.64 51.24L664.06 56.6572C668.492 58.7673 671.455 61.5204 673.322 64.8196L678.544 61.864L683.766 58.9084C680.513 53.1623 675.54 48.8327 669.22 45.8228L666.64 51.24ZM678.544 61.864L673.39 64.9364C675.408 68.3206 676.512 72.3915 676.512 77.352H682.512H688.512C688.512 70.5364 686.971 64.2821 683.698 58.7916L678.544 61.864ZM682.512 77.352H676.512C676.512 82.2058 675.417 86.3643 673.34 89.9808L678.544 92.968L683.748 95.9552C686.962 90.3557 688.512 84.1036 688.512 77.352H682.512ZM678.544 92.968L673.322 90.0124C671.455 93.3116 668.492 96.0647 664.06 98.1748L666.64 103.592L669.22 109.009C675.54 105.999 680.513 101.67 683.766 95.9236L678.544 92.968ZM666.64 103.592L664.098 98.1571C659.856 100.141 654.06 101.304 646.416 101.304V107.304V113.304C655.156 113.304 662.842 111.992 669.182 109.027L666.64 103.592ZM646.416 107.304V101.304H627.088V107.304V113.304H646.416V107.304ZM627.088 107.304H633.088V88.488H627.088H621.088V107.304H627.088ZM627.088 88.488V94.488H644.368V88.488V82.488H627.088V88.488ZM644.368 88.488V94.488C647.553 94.488 650.633 94.0313 653.388 92.8509L651.024 87.336L648.66 81.8211C647.831 82.1767 646.474 82.488 644.368 82.488V88.488ZM651.024 87.336L653.388 92.8509C656.223 91.6355 658.597 89.696 660.24 87.0087L655.12 83.88L650 80.7513C649.765 81.136 649.409 81.5005 648.66 81.8211L651.024 87.336ZM655.12 83.88L660.112 87.2082C661.891 84.5401 662.656 81.5046 662.656 78.376H656.656H650.656C650.656 79.514 650.397 80.1479 650.128 80.5518L655.12 83.88ZM656.656 78.376H662.656C662.656 75.2584 661.894 72.1928 660.022 69.5399L655.12 73L650.218 76.4601C650.394 76.7085 650.656 77.227 650.656 78.376H656.656ZM655.12 73L660.24 69.8713C658.597 67.184 656.223 65.2445 653.388 64.0291L651.024 69.544L648.66 75.0589C649.409 75.3795 649.765 75.744 650 76.1287L655.12 73ZM651.024 69.544L653.388 64.0291C650.633 62.8487 647.553 62.392 644.368 62.392V68.392V74.392C646.474 74.392 647.831 74.7033 648.66 75.0589L651.024 69.544ZM644.368 68.392V62.392H627.088V68.392V74.392H644.368V68.392Z" fill="black" mask="url(#path-1-outside-1_388_129)"/>
<mask id="mask0_388_129" style="mask-type:luminance" maskUnits="userSpaceOnUse" x="501" y="44" width="96" height="96">
<path d="M501.778 44.7778H596.222V139.222H501.778V44.7778Z" fill="white"/>
</mask>
<g mask="url(#mask0_388_129)">
<g filter="url(#filter0_i_388_129)">
<path d="M549 139.222C561.524 139.222 573.535 134.247 582.391 125.391C591.247 116.535 596.222 104.524 596.222 92C596.222 79.4759 591.247 67.4647 582.391 58.6088C573.535 49.753 561.524 44.7778 549 44.7778C536.476 44.7778 524.465 49.753 515.609 58.6088C506.753 67.4647 501.778 79.4759 501.778 92C501.778 104.524 506.753 116.535 515.609 125.391C524.465 134.247 536.476 139.222 549 139.222Z" fill="#DB5192"/>
</g>
<path d="M549 135.444C560.522 135.444 571.573 130.867 579.72 122.72C587.867 114.572 592.445 103.522 592.445 92C592.445 80.4779 587.867 69.4276 579.72 61.2802C571.573 53.1328 560.522 48.5556 549 48.5556C537.478 48.5556 526.428 53.1328 518.28 61.2802C510.133 69.4276 505.556 80.4779 505.556 92C505.556 103.522 510.133 114.572 518.28 122.72C526.428 130.867 537.478 135.444 549 135.444Z" fill="#FFCC57"/>
<path d="M549 134.5C560.272 134.5 571.082 130.022 579.052 122.052C587.022 114.082 591.5 103.272 591.5 92.0001C591.5 80.7284 587.022 69.9183 579.052 61.948C571.082 53.9777 560.272 49.5001 549 49.5001C537.728 49.5001 526.918 53.9777 518.948 61.948C510.978 69.9183 506.5 80.7284 506.5 92.0001C506.5 103.272 510.978 114.082 518.948 122.052C526.918 130.022 537.728 134.5 549 134.5Z" stroke="black" stroke-opacity="0.2"/>
<path d="M549 129.778C559.019 129.778 568.628 125.798 575.713 118.713C582.798 111.628 586.778 102.019 586.778 92C586.778 81.9807 582.798 72.3718 575.713 65.2871C568.628 58.2024 559.019 54.2222 549 54.2222C538.981 54.2222 529.372 58.2024 522.287 65.2871C515.203 72.3718 511.222 81.9807 511.222 92C511.222 102.019 515.203 111.628 522.287 118.713C529.372 125.798 538.981 129.778 549 129.778Z" fill="#DB5192"/>
<path d="M549 128.833C558.769 128.833 568.138 124.953 575.045 118.045C581.953 111.137 585.833 101.769 585.833 92C585.833 82.2312 581.953 72.8624 575.045 65.9549C568.138 59.0473 558.769 55.1666 549 55.1666C539.231 55.1666 529.863 59.0473 522.955 65.9549C516.047 72.8624 512.167 82.2312 512.167 92C512.167 101.769 516.047 111.137 522.955 118.045C529.863 124.953 539.231 128.833 549 128.833Z" stroke="black" stroke-opacity="0.2"/>
<path d="M549 124.111C557.517 124.111 565.684 120.728 571.706 114.706C577.728 108.684 581.111 100.516 581.111 92C581.111 83.4836 577.728 75.316 571.706 69.294C565.684 63.272 557.517 59.8889 549 59.8889C540.484 59.8889 532.316 63.272 526.294 69.294C520.272 75.316 516.889 83.4836 516.889 92C516.889 100.516 520.272 108.684 526.294 114.706C532.316 120.728 540.484 124.111 549 124.111Z" fill="#FFCC57"/>
<path d="M549 123.167C557.266 123.167 565.193 119.883 571.038 114.038C576.883 108.193 580.167 100.266 580.167 92C580.167 83.7341 576.883 75.8068 571.038 69.9619C565.193 64.117 557.266 60.8334 549 60.8334C540.734 60.8334 532.807 64.117 526.962 69.9619C521.117 75.8068 517.833 83.7341 517.833 92C517.833 100.266 521.117 108.193 526.962 114.038C532.807 119.883 540.734 123.167 549 123.167Z" stroke="black" stroke-opacity="0.2"/>
<path d="M549 118.444C556.014 118.444 562.74 115.658 567.699 110.699C572.658 105.74 575.445 99.0136 575.445 92.0001C575.445 84.9865 572.658 78.2603 567.699 73.301C562.74 68.3417 556.014 65.5556 549 65.5556C541.987 65.5556 535.26 68.3417 530.301 73.301C525.342 78.2603 522.556 84.9865 522.556 92.0001C522.556 99.0136 525.342 105.74 530.301 110.699C535.26 115.658 541.987 118.444 549 118.444Z" fill="white" fill-opacity="0.4"/>
<path d="M549 117.5C552.349 117.5 555.665 116.84 558.759 115.559C561.852 114.277 564.663 112.399 567.031 110.031C569.399 107.663 571.278 104.852 572.559 101.758C573.841 98.6646 574.5 95.3487 574.5 92C574.5 88.6513 573.841 85.3354 572.559 82.2416C571.278 79.1478 569.399 76.3367 567.031 73.9688C564.663 71.6009 561.852 69.7226 558.759 68.4411C555.665 67.1596 552.349 66.5 549 66.5C542.237 66.5 535.751 69.1866 530.969 73.9688C526.187 78.751 523.5 85.237 523.5 92C523.5 98.763 526.187 105.249 530.969 110.031C535.751 114.813 542.237 117.5 549 117.5Z" stroke="black" stroke-opacity="0.2"/>
<path d="M549 113.722C554.761 113.722 560.286 111.434 564.36 107.36C568.434 103.286 570.722 97.7611 570.722 92.0001C570.722 86.239 568.434 80.7138 564.36 76.6401C560.286 72.5664 554.761 70.2778 549 70.2778C543.239 70.2778 537.714 72.5664 533.64 76.6401C529.566 80.7138 527.278 86.239 527.278 92.0001C527.278 97.7611 529.566 103.286 533.64 107.36C537.714 111.434 543.239 113.722 549 113.722Z" fill="black" fill-opacity="0.5" stroke="black"/>
<path d="M549 109.944C551.357 109.944 553.69 109.48 555.867 108.579C558.044 107.677 560.022 106.355 561.689 104.689C563.355 103.022 564.677 101.044 565.579 98.8671C566.48 96.69 566.945 94.3565 566.945 92C566.945 89.6436 566.48 87.3101 565.579 85.133C564.677 82.9559 563.355 80.9777 561.689 79.3114C560.022 77.6451 558.044 76.3233 555.867 75.4215C553.69 74.5197 551.357 74.0556 549 74.0556C544.241 74.0556 539.677 75.9462 536.311 79.3114C532.946 82.6766 531.056 87.2409 531.056 92C531.056 96.7592 532.946 101.323 536.311 104.689C539.677 108.054 544.241 109.944 549 109.944Z" fill="black" fill-opacity="0.6" stroke="black"/>
<path d="M549 106.167C550.861 106.167 552.703 105.8 554.422 105.088C556.14 104.376 557.702 103.333 559.018 102.017C560.333 100.702 561.377 99.1402 562.088 97.4214C562.8 95.7026 563.167 93.8604 563.167 92C563.167 90.1396 562.8 88.2975 562.088 86.5787C561.377 84.8599 560.333 83.2982 559.018 81.9827C557.702 80.6672 556.14 79.6237 554.422 78.9117C552.703 78.1998 550.861 77.8334 549 77.8334C545.243 77.8334 541.64 79.3259 538.983 81.9827C536.326 84.6395 534.833 88.2428 534.833 92C534.833 95.7573 536.326 99.3606 538.983 102.017C541.64 104.674 545.243 106.167 549 106.167Z" fill="black" fill-opacity="0.5" stroke="black"/>
<path d="M549 102.389C551.756 102.389 554.398 101.294 556.346 99.3461C558.295 97.3978 559.389 94.7553 559.389 92C559.389 89.2447 558.295 86.6023 556.346 84.654C554.398 82.7057 551.756 81.6111 549 81.6111C546.245 81.6111 543.602 82.7057 541.654 84.654C539.706 86.6023 538.611 89.2447 538.611 92C538.611 94.7553 539.706 97.3978 541.654 99.3461C543.602 101.294 546.245 102.389 549 102.389Z" fill="black" fill-opacity="0.4" stroke="black"/>
<path d="M549 99.5556C551.004 99.5556 552.926 98.7595 554.343 97.3426C555.76 95.9257 556.556 94.0039 556.556 92C556.556 89.9962 555.76 88.0744 554.343 86.6574C552.926 85.2405 551.004 84.4445 549 84.4445C546.996 84.4445 545.074 85.2405 543.658 86.6574C542.241 88.0744 541.445 89.9962 541.445 92C541.445 94.0039 542.241 95.9257 543.658 97.3426C545.074 98.7595 546.996 99.5556 549 99.5556Z" fill="black"/>
<path d="M549 98.6111C550.754 98.6111 552.435 97.9146 553.675 96.6748C554.915 95.435 555.611 93.7534 555.611 92C555.611 90.2467 554.915 88.5651 553.675 87.3253C552.435 86.0854 550.754 85.3889 549 85.3889C547.247 85.3889 545.565 86.0854 544.325 87.3253C543.086 88.5651 542.389 90.2467 542.389 92C542.389 93.7534 543.086 95.435 544.325 96.6748C545.565 97.9146 547.247 98.6111 549 98.6111Z" stroke="black" stroke-opacity="0.2"/>
<g filter="url(#filter1_f_388_129)">
<path d="M549 93.8889C549.501 93.8889 549.982 93.6899 550.336 93.3357C550.69 92.9814 550.889 92.501 550.889 92C550.889 91.4991 550.69 91.0186 550.336 90.6644C549.982 90.3102 549.501 90.1111 549 90.1111C548.499 90.1111 548.019 90.3102 547.664 90.6644C547.31 91.0186 547.111 91.4991 547.111 92C547.111 92.501 547.31 92.9814 547.664 93.3357C548.019 93.6899 548.499 93.8889 549 93.8889Z" fill="white"/>
</g>
</g>
<g style="mix-blend-mode:multiply">
<path d="M530.701 48.4676C536.417 46.0645 542.552 44.8109 548.753 44.7784C554.954 44.746 561.101 45.9352 566.843 48.2783L557.564 71.0136C554.808 69.8889 551.858 69.3181 548.881 69.3336C545.905 69.3492 542.96 69.9509 540.216 71.1044L530.701 48.4676Z" fill="white"/>
</g>
<g style="mix-blend-mode:multiply">
<path d="M592.532 73.7007C597.386 85.2462 597.454 98.2468 592.722 109.842L569.986 100.564C572.258 94.9984 572.225 88.7582 569.896 83.2163L592.532 73.7007Z" fill="white"/>
</g>
<g style="mix-blend-mode:multiply">
<path d="M567.299 135.532C555.754 140.386 542.753 140.454 531.158 135.722L540.436 112.986C546.002 115.258 552.242 115.225 557.784 112.896L567.299 135.532Z" fill="white"/>
</g>
<g style="mix-blend-mode:multiply">
<path d="M505.468 110.299C500.614 98.7538 500.546 85.7532 505.278 74.1575L528.014 83.4356C525.742 89.0015 525.775 95.2418 528.104 100.784L505.468 110.299Z" fill="white"/>
</g>
<g style="mix-blend-mode:difference">
<path d="M592.722 109.842C587.99 121.438 578.845 130.679 567.299 135.532L557.784 112.896C563.326 110.566 567.715 106.13 569.986 100.564L592.722 109.842Z" fill="white"/>
</g>
<g style="mix-blend-mode:difference">
<path d="M531.158 135.722C519.562 130.99 510.321 121.845 505.468 110.299L528.104 100.784C530.434 106.326 534.87 110.715 540.436 112.986L531.158 135.722Z" fill="white"/>
</g>
<g style="mix-blend-mode:difference">
<path d="M505.278 74.1575C507.621 68.4159 511.073 63.192 515.435 58.7841C519.796 54.3762 524.984 50.8707 530.701 48.4676L540.216 71.1044C537.472 72.2579 534.982 73.9406 532.889 76.0564C530.795 78.1722 529.138 80.6796 528.014 83.4356L505.278 74.1575Z" fill="white"/>
</g>
<g style="mix-blend-mode:difference">
<path d="M566.843 48.2783C578.438 53.0104 587.679 62.1551 592.532 73.7006L569.896 83.2163C567.566 77.6745 563.13 73.285 557.564 71.0136L566.843 48.2783Z" fill="white"/>
</g>
<path d="M600 92C600 120.167 577.167 143 549 143C520.833 143 498 120.167 498 92C498 63.8335 520.833 41 549 41C577.167 41 600 63.8335 600 92ZM501.771 92C501.771 118.084 522.916 139.229 549 139.229C575.084 139.229 596.229 118.084 596.229 92C596.229 65.916 575.084 44.7708 549 44.7708C522.916 44.7708 501.771 65.916 501.771 92Z" fill="black"/>
<circle cx="503.667" cy="110.889" r="1.88889" fill="#D9D9D9"/>
<circle cx="530.111" cy="137.333" r="1.88889" fill="#D9D9D9"/>
<circle cx="567.889" cy="137.333" r="1.88889" fill="#D9D9D9"/>
<circle cx="594.333" cy="110.889" r="1.88889" fill="#D9D9D9"/>
<circle cx="594.333" cy="73.1111" r="1.88889" fill="#D9D9D9"/>
<circle cx="567.889" cy="46.6667" r="1.88889" fill="#D9D9D9"/>
<circle cx="530.111" cy="46.6667" r="1.88889" fill="#D9D9D9"/>
<circle cx="503.667" cy="73.1111" r="1.88889" fill="#D9D9D9"/>
<path d="M4 154L697 154" stroke="#EB297D" stroke-width="4" stroke-linecap="round"/>
<g filter="url(#filter2_d_388_129)">
<path d="M121 165H572" stroke="#00FF87" stroke-width="3" stroke-linecap="round"/>
</g>
<g filter="url(#filter3_d_388_129)">
<path d="M208 175H495" stroke="#00EEF6" stroke-width="2" stroke-linecap="round"/>
</g>
<defs>
<filter id="filter0_i_388_129" x="501.778" y="44.7778" width="94.4445" height="98.4445" filterUnits="userSpaceOnUse" color-interpolation-filters="sRGB">
<feFlood flood-opacity="0" result="BackgroundImageFix"/>
<feBlend mode="normal" in="SourceGraphic" in2="BackgroundImageFix" result="shape"/>
<feColorMatrix in="SourceAlpha" type="matrix" values="0 0 0 0 0 0 0 0 0 0 0 0 0 0 0 0 0 0 127 0" result="hardAlpha"/>
<feOffset dy="4"/>
<feGaussianBlur stdDeviation="2"/>
<feComposite in2="hardAlpha" operator="arithmetic" k2="-1" k3="1"/>
<feColorMatrix type="matrix" values="0 0 0 0 0 0 0 0 0 0 0 0 0 0 0 0 0 0 0.25 0"/>
<feBlend mode="normal" in2="shape" result="effect1_innerShadow_388_129"/>
</filter>
<filter id="filter1_f_388_129" x="543.111" y="86.1111" width="11.7778" height="11.7778" filterUnits="userSpaceOnUse" color-interpolation-filters="sRGB">
<feFlood flood-opacity="0" result="BackgroundImageFix"/>
<feBlend mode="normal" in="SourceGraphic" in2="BackgroundImageFix" result="shape"/>
<feGaussianBlur stdDeviation="2" result="effect1_foregroundBlur_388_129"/>
</filter>
<filter id="filter2_d_388_129" x="115.5" y="163.5" width="462" height="11" filterUnits="userSpaceOnUse" color-interpolation-filters="sRGB">
<feFlood flood-opacity="0" result="BackgroundImageFix"/>
<feColorMatrix in="SourceAlpha" type="matrix" values="0 0 0 0 0 0 0 0 0 0 0 0 0 0 0 0 0 0 127 0" result="hardAlpha"/>
<feOffset dy="4"/>
<feGaussianBlur stdDeviation="2"/>
<feComposite in2="hardAlpha" operator="out"/>
<feColorMatrix type="matrix" values="0 0 0 0 0 0 0 0 0 0 0 0 0 0 0 0 0 0 0.25 0"/>
<feBlend mode="normal" in2="BackgroundImageFix" result="effect1_dropShadow_388_129"/>
<feBlend mode="normal" in="SourceGraphic" in2="effect1_dropShadow_388_129" result="shape"/>
</filter>
<filter id="filter3_d_388_129" x="203" y="174" width="297" height="10" filterUnits="userSpaceOnUse" color-interpolation-filters="sRGB">
<feFlood flood-opacity="0" result="BackgroundImageFix"/>
<feColorMatrix in="SourceAlpha" type="matrix" values="0 0 0 0 0 0 0 0 0 0 0 0 0 0 0 0 0 0 127 0" result="hardAlpha"/>
<feOffset dy="4"/>
<feGaussianBlur stdDeviation="2"/>
<feComposite in2="hardAlpha" operator="out"/>
<feColorMatrix type="matrix" values="0 0 0 0 0 0 0 0 0 0 0 0 0 0 0 0 0 0 0.25 0"/>
<feBlend mode="normal" in2="BackgroundImageFix" result="effect1_dropShadow_388_129"/>
<feBlend mode="normal" in="SourceGraphic" in2="effect1_dropShadow_388_129" result="shape"/>
</filter>
</defs>
</svg>
